<svg xmlns="http://www.w3.org/2000/svg" width="119" height="27" fill="none" xmlns:v="https://vecta.io/nano"><path d="M7.2 14.6c.5.1 1 .3 1.4.5s.8.4 1.1.8c.3.3.5.7.7 1.1s.3 1 .3 1.6c0 .7-.1 1.3-.4 1.8-.3.6-.7 1.1-1.2 1.5s-1.2.7-1.9 1c-.8.2-1.6.4-2.6.4-.8 0-1.6-.1-2.3-.2s-1.4-.3-2.2-.6c.1-1.2.4-2.3.9-3.5.5.3 1.1.4 1.7.6.6.1 1.2.2 1.8.2h.6c.2 0 .4-.1.6-.1.2-.1.3-.1.4-.2s.2-.2.2-.4a.55.55 0 0 0-.3-.5c-.2-.1-.5-.2-.8-.3l-1.7-.5c-.9-.3-1.7-.7-2.3-1.3S.3 15 .3 14c0-.7.1-1.3.4-1.8s.7-1 1.2-1.4 1.1-.7 1.8-.9 1.4-.3 2.2-.3c.7 0 1.4.1 2.1.2.8.1 1.5.3 2.3.6 0 .5-.1 1.1-.3 1.8l-.6 1.7c-.5-.2-1-.4-1.7-.5-.7-.2-1.2-.2-1.8-.2-.8 0-1.2.2-1.2.7 0 .2.1.3.3.4l.6.3h1.6zm4 4a4.65 4.65 0 0 1 .5-2.1c.4-.5.8-1 1.4-1.3s1.2-.6 1.9-.7l2-.2h1.6c0-.3-.1-.6-.3-.8s-.4-.4-.6-.5-.5-.2-.8-.2-.6-.1-.9-.1c-.4 0-.9 0-1.4.1s-1.1.2-1.7.4c-.2-.3-.3-.6-.4-.8s-.2-.5-.3-.7-.1-.5-.1-.8V10c.8-.3 1.6-.5 2.5-.6l2.2-.2c.9 0 1.7.1 2.4.3s1.3.5 1.8 1c.5.4.9 1 1.2 1.7s.4 1.5.4 2.5v7.5l-2.4.6c-.9.2-1.9.3-2.9.3-.9 0-1.7-.1-2.5-.2s-1.4-.4-1.9-.8-.9-.8-1.2-1.4c-.4-.6-.5-1.3-.5-2.1zm6 1.4c.2 0 .4 0 .7-.1.3 0 .5-.1.6-.1V17H17c-.6 0-1.1.1-1.5.4-.3.3-.5.6-.5 1.1 0 .3.1.6.2.8.2.2.3.3.6.4.2.1.5.2.7.2.3.1.5.1.7.1zm11.4-1.1v3.9c-.4.1-.7.1-1.1.2h-2.2c-.4 0-.7-.1-1.1-.2V9.6H34c.1.3.1.7.2.9v1.7c0 .3-.1.6-.2 1h-5.5v2.1H33c.1.3.1.7.2.9v1.7c0 .3-.1.6-.2 1h-4.4zm5.8-.3a4.65 4.65 0 0 1 .5-2.1c.4-.5.8-1 1.4-1.3s1.2-.6 1.9-.7l2-.2h1.6c0-.3-.1-.6-.3-.8s-.4-.4-.6-.5-.5-.2-.8-.2-.6-.1-.9-.1c-.4 0-.9 0-1.4.1s-1.1.2-1.7.4c-.2-.3-.3-.6-.4-.8s-.2-.5-.3-.7-.1-.5-.1-.8V10c.8-.3 1.6-.5 2.5-.6l2.2-.2c.9 0 1.7.1 2.4.3s1.3.5 1.8 1c.5.4.9 1 1.2 1.7s.4 1.5.4 2.5v7.5l-2.4.6c-.9.2-1.9.3-2.9.3-.9 0-1.7-.1-2.5-.2s-1.4-.4-1.9-.8-.9-.8-1.2-1.4c-.4-.6-.5-1.3-.5-2.1zm6.1 1.4c.2 0 .4 0 .7-.1.3 0 .5-.1.6-.1V17h-1.5c-.6 0-1.1.1-1.5.4s-.6.6-.6 1.1c0 .3.1.6.2.8.2.2.3.3.6.4.2.1.5.2.7.2.3.1.5.1.8.1zm7-10.3l2.5-.3c.9-.1 1.7-.1 2.5-.1 2.1 0 3.6.4 4.7 1.2 1 .8 1.6 1.9 1.6 3.3 0 .5-.1 1-.2 1.4s-.3.7-.4 1c-.2.3-.4.5-.5.7-.2.2-.3.3-.5.4l2.9 5.6c-.3.1-.7.1-1.1.2-.4 0-.8.1-1.2.1-.5 0-.9 0-1.4-.1s-.8-.1-1.1-.2l-2.8-6.1.4-.2c.6-.3 1-.7 1.2-1.1s.3-.8.3-1.2-.1-.8-.4-1.1-.7-.4-1.3-.4c-.3 0-.6 0-.7.1V23h-3.4c-.3 0-.7-.1-1.2-.2V9.7h.1zm17.4 13.2c-.5 0-.9.1-1.2.1-.4 0-.7.1-1 .1s-.6 0-1-.1c-.4 0-.8-.1-1.2-.2V9.6c.4-.1.7-.1 1.1-.2.4 0 .7-.1 1.1-.1.3 0 .7 0 1.1.1.4 0 .7.1 1.1.2v13.3zm1.8-13.3c.4-.1.7-.1 1.1-.2.4 0 .7-.1 1.1-.1.3 0 .7 0 1.1.1.4 0 .7.1 1.1.2v13.2c-.4.1-.8.1-1.2.2h-2c-.4 0-.8-.1-1.2-.2V9.6zm7.8 0c.3-.1.7-.1 1.1-.2s.8-.1 1.2-.1.9 0 1.3.1c.5 0 .8.1 1.1.2L76 15.8l3.5 7.1c-.3.1-.7.1-1.2.2s-.9.1-1.2.1c-.4 0-.9 0-1.3-.1s-.8-.1-1-.2L71.5 16l3-6.4zm4.8 9a4.65 4.65 0 0 1 .5-2.1c.4-.5.8-1 1.4-1.3s1.2-.6 1.9-.7l2-.2h1.6c0-.3-.1-.6-.3-.8s-.4-.4-.6-.5-.5-.2-.8-.2-.6-.1-.9-.1c-.4 0-.9 0-1.4.1s-1.1.2-1.7.4c-.2-.3-.3-.6-.4-.8s-.2-.5-.3-.7-.1-.5-.1-.8V10c.8-.3 1.6-.5 2.5-.6l2.2-.2c.9 0 1.7.1 2.4.3s1.3.5 1.8 1c.5.4.9 1 1.2 1.7s.4 1.5.4 2.5v7.5l-2.4.6c-.9.2-1.9.3-2.9.3-.9 0-1.7-.1-2.5-.2s-1.4-.4-1.9-.8-.9-.8-1.2-1.4a4.65 4.65 0 0 1-.5-2.1zm6.1 1.4c.2 0 .4 0 .7-.1.3 0 .5-.1.6-.1V17h-1.5c-.6 0-1.1.1-1.5.4s-.6.6-.6 1.1c0 .3.1.6.2.8.2.2.3.3.6.4.2.1.5.2.7.2.3.1.6.1.8.1z" fill="#fff"/><path d="M95.9 4.7l5.3-4.7 10.7 2.3 4.4 11.5L96 9.3l-.1-4.6z" fill="url(#A)"/><path d="M108.1 26.1L118.6 6 104 2.5l.9 21.9 3.2 1.7z" fill="url(#B)"/><path d="M116.1 19l-2.2-1.4-2 4.5.5.2 3.7-3.3z" fill="#fcbe00"/><defs><linearGradient id="A" x1="95.89" y1="6.875" x2="116.291" y2="6.875" gradientUnits="userSpaceOnUse"><stop stop-color="#ba2646"/><stop offset="1" stop-color="#ea4310"/></linearGradient><linearGradient id="B" x1="103.96" y1="14.273" x2="118.607" y2="14.273" gradientUnits="userSpaceOnUse"><stop stop-color="#f19300"/><stop offset="1" stop-color="#fdc500"/></linearGradient></defs></svg>