<svg xmlns="http://www.w3.org/2000/svg" width="150" height="49" fill="none" xmlns:v="https://vecta.io/nano"><path fill-rule="evenodd" d="M20.606 43.528c5.3-.048 10.57-.605 15.824-1.158l4.213-.434 4.32-.46c10.93-1.18 21.92-2.365 32.856-1.05 4.273.6 8.295-.01 12.337-.616 2.32-.347 4.65-.696 7.035-.82 3.935-.33 7.962.304 11.98.938 2.772.437 5.54.874 8.27.993 7.755.45 15.488.473 23.094.3 4.673-.244 9.06-10.5 8.498-19.005-.57-8.718-4.025-14.3-9.41-14.23l-1.26.012c-9.038-.956-20.718-2.02-29.004-1.203l-4.32.46c-10.93 1.18-21.92 2.365-32.856 1.05-4.273-.59-8.295.01-12.337.616-2.32.347-4.65.696-7.035.82-3.935.33-7.962-.304-11.98-.938-2.77-.437-5.54-.874-8.27-.993-7.755-.45-15.49-.473-23.094-.3-4.673.244-9.06 10.5-8.5 19.005.572 8.718 4.23 18.242 9.616 18.175 3.36-.03 6.697-.48 10.023-1.16z" fill="#e7ab54"/></svg>