<svg xmlns="http://www.w3.org/2000/svg" width="1295" height="49" fill="#e7ab54" xmlns:v="https://vecta.io/nano"><path d="M1003.57 41.053l5.6-4.474c.14 0 .28.02.4.02v3.086c.03.58.03 1.18.25 1.72.14.33.72.746 1.1.746.38.02.9-.373 1.18-.684l5.14-5.634.33 1.926c.08.87 0 1.74.14 2.6.08.456.5 1.222.77 1.243.74 0 1.74-.145 2.23-.538l5.17-4.37c.16-.145.44-.228 1.02-.497v4.06c0 .352.08.766.3 1.056s.66.62 1.02.642c.4.02.97-.248 1.2-.518l4.47-5.013c1.27-1.263 1.24-2.32 0-3.5l-1.9-1.968-3.32-2.713 3.54-3.397c1.02-1.14 2-2.32 2.62-3.604.25-.518-.53-1.388-1.02-1.988a19.98 19.98 0 0 0-2.54-2.63c-.66-.6-1.5-1.118-2.38-1.553-1.35-.663-2.12-.3-2.15.932-.03.518.1 1.036.1 1.554v3.066l-.44.145-3.78-2.858-2.04-1.678c-.53-.352-1.22-.58-1.85-.85-.44.683-1.1 1.326-1.24 2.05-.2.932.05 1.906-.2 2.983l-2.07-2.133c-1.2-1.056-2.4-2.133-3.8-3.024-1.07-.663-2-.207-2.04.85-.03.85.14 1.72.14 2.568 0 .746-.14 1.5-.25 2.548l-5.7-4.598V18.9l3.45 2.485c.27.228.27.9.02 1.14-1.07.9-2.3 1.74-3.47 2.6v2.278l5.82-4.557.5 5.82c-.03 1.926-.42 3.873-.67 6.007l-1.38-.953-4.27-3.418v10.77zm8.06-12.676l2.76-2.88 2.78-3.2c.4 1.553.45 3.066.6 4.578.14 1.2 1.24 1.533 2.54.808.3-.166.52-.394.77-.6l3.48-2.92 1.8-1.636.38.228c.2 1.864.58 3.75.55 5.613-.02 1.864-.44 3.728-.74 5.84-.6-.373-1.02-.56-1.33-.83l-5.2-4.1c-.28-.207-1.33-.248-1.5-.083-.67.663-1.33 1.346-1.02 2.34.22.746.05 1.574.05 2.485l-5.93-5.654zm13.3-6.525l-4.75 3.77-.52-.124V17.73l5.27 4.122zM1011.9 39.2l-.36-.124v-8.43l3.3 3.23c.33.352.83.932.63 1.16-1.07 1.43-2.34 2.796-3.56 4.163zm17.28-.166l-.28-.145v-8.306l3.45 3.376c.25.248.42.725.28.932l-3.45 4.142zm-25.6-25.312l5.85-4.495c.14.02.3.02.44.04v3.956c0 .3 0 .642.2.85.3.3.78.704 1.2.704.4 0 .88-.394 1.2-.704l5.2-5.717.22 2.734c.05.683.02 1.388.16 2.07.25 1.305 1.3 1.595 2.62.684 1.1-.766 2.1-1.636 3.12-2.465l2.87-2.403c.14.02.28.062.4.083l.2 3.832c.03.456.14.973.47 1.326.47.497 1.24.54 1.7-.02l5.72-6.587c.2-.207.14-.704-.1-.9l-5.1-4.992c-.47-.414-1.38-.518-2.1-.766-.28.58-.72 1.16-.77 1.74-.1 1.388-.03 2.755-.03 4.433l-4.03-2.9-2.62-2.237c-.6-.476-1.27-.6-1.9.104-.66.725-.85 1.47-.7 2.32.1.704.02 1.43-.28 2.216l-2.87-3.148c-.88-.808-2.02-1.47-3.12-2.113-.86-.497-1.5-.145-1.74.56-.14.456-.1.953-.1 1.43v3.998l-1.38-.85-3.95-3.273c-.16-.207-.47-.33-.7-.476v10.978zm8.6-1.74l-.44-.3V3.148l3.58 3.728c.25.3.23.9 0 1.243-.77 1.036-1.68 2-2.53 3.024a7.95 7.95 0 0 0-.61.829zm16.9-8.948l3.48 3.335c.47.476.7 1.015.1 1.595l-2.62 2.983c-.2.207-.53.33-.97.62V3.024zm171.53 16.01c-.45.228-.86.642-1.3.642-2.87.02-5.7.02-8.58-.124-1.9-.083-2.5-.704-2.5-2.175l.03-3.086c0-.6-.28-1.036-1.2-.974s-1.05.54-.96 1.118l.5 4.288c.2 1.4 1.33 2.32 3.2 2.36l9.86.04c.88-.02 1.74-.54 2.6-.828l.72-3.48c.06-.228.28-.6.44-.62l6.32-.27.03 3.604c.25 2.03 1.38 2.796 4.1 3.107.4.04.93.456 1.1.766a1.96 1.96 0 0 1 .05 1.429c-.1.3-.66.684-1 .684l-5.3-.394-3.26.04-10.3-.25-7.65-.456c-.22-.02-.5-.062-.7.02-.38.186-.7.435-1.07.642.27.228.5.62.82.684.83.186 1.72.27 2.57.3l9.97.435c.08.373.16.642.16.9-.1 2.88-.14 2.6-3.17 2.07-1.35-.25-2.82-.228-4.23-.3l-4.38-.104c-.47.02-.9.414-1.36.62.4.3.75.766 1.16.808l5.77.33a148.55 148.55 0 0 1 5.27.394c.22.02.56.248.6.435.17.414.3.87.3 1.305 0 1.5-.4 1.595-2.4 1.5l-8.8-.124c-.36 0-.72.476-1.08.725.33.228.66.62 1.02.642l7.54.207 3.4.207v4.018l-6.43-.33-6.04-.228c-.44 0-1.22.435-1.3.746-.17.663.63.663 1.32.684l11.5.663c.52.04 1.05.25 1.54.373 1.02.25 1.55-.083 1.55-.9l.08-10.522v-4.04l6.82.02 5.74.3c1.08.04 1.6.3 1.57 1.16-.02.58-.05 1.2.14 1.74.4 1.015 2.68 1.885 4.06 1.636l3.2-.62c.47-.145.8-.58 1.2-.9-.47-.186-1-.54-1.44-.518-1.1.062-2.2.3-3.3.435s-1.74-.27-1.77-1.056V22.95l2.5.414c1.24.3 3.2-.476 3.3-1.5.14-1.43.1-2.88.17-4.33v-1.678l3.8.33c.3.042.7.518.72.808l.25 4.35-.14 10.13c-.03 1.346-.22 2.672-.36 4.018-3.17.58-6.32.373-9.46.103l-8.37-.87c-.94-.083-1.46-.33-1.52-1.036l-.2-2.755c-.03-.56-.14-1.16-1.05-1.036-.4.04-1.02.58-1.05.9-.02 1.14.1 2.258.28 3.397.2 1.18 1.02 1.76 2.57 1.988.4.062.82.04 1.24.104.96.145 2.65.248 2.73.518.28 1.16.06 2.382-.05 3.563 0 .124-.6.27-.9.3-1.8 0-3.5.6-5.36.207-.6-.124-1.43.186-2.12.373-.25.083-.53.435-.47.62.05.207.44.497.7.518l3.56.124 4.92-.25c1.74-.062 2.04-.33 1.93-1.636-.08-1.264-.03-2.527-.03-3.687.33-.124.4-.187.47-.187 4.9.3 4.28-.04 4.28 3.48 0 .766.25 1.553.5 2.3.05.186.63.435.9.414a.86.86 0 0 0 .58-.663l.02-4.95h6v4.847c0 .56.34 1.056 1.14.828.4-.124.85-.704.88-1.077.1-1.657.03-3.335.05-5.012l.2-7.125c.08-3.48.22-6.96.14-10.44a325.27 325.27 0 0 0-.58-13.235c-.1-1.533-.28-1.533-2.38-1.616-.55-.02-1.1-.124-1.63-.145-2.48-.104-3.03.166-3.3 2.36-.2 1.47.03 2.962.03 4.433 0 .62.3 1.077 1.16 1.015.83-.062 1-.518.96-1.14-.05-1.533 0-3.086.17-4.598.03-.207.94-.518 1.46-.518.58-.02 1.4-.062 1.47.746.13 2.34.33 4.68.52 7 .06.766-.25.994-1.35.9-2.5-.228-5.03-.352-7.54-.456-2.07-.083-2.98-.663-2.8-2.3.23-1.947.03-3.935-.08-5.882-.03-.3-.55-.6-.83-.9-.33.3-.96.6-1 .9a124.51 124.51 0 0 0-.1 7.23c.03.953 1.13 1.76 2.4 1.968 1.24.207 2.5.373 3.75.62.3.062.7.393.7.6.06 1.76.03 3.542.03 5.427l-4.94-.6c-.33-.04-.63-.083-.96-.083-3.34 0-3.65-.953-3.68-3.23l-.16-10.626c0-.414-.14-.83-.08-1.243.2-1.574.05-1.864-1.96-2.113-1.7-.228-3.65-.58-5.08.497-.58.435-.97 1.16-1.02 1.78-.17 1.47-.1 2.962-.1 4.433 0 .62.3 1.036 1.2.953s.77-.58.77-1.098a66.64 66.64 0 0 1 .06-3.998c.05-1.056.8-1.47 2.46-1.346.5.04 1 .124 1.84.228l-.02 8.472c0 .228-.6.642-.9.642-3.04-.062-6.05-.166-9.1-.352-1.76-.104-2.8-.766-2.84-1.595-.03-.85.06-1.72.08-2.568.03-1.16 0-2.34.12-3.5.08-.746.38-1.47.55-2.216.1-.56.22-1.18-.86-1.263-.94-.083-1.1.414-1.16.994l-.66 4.474c-1.3.083-2.7.207-4.1.228-1.1.02-1.74-.953-1.44-2.05l.83-3.003c.22-.83-.6-.953-1.38-1.118l-.83.62-.14 1.222-.3 4.557 1.52 1.077 4.66-.02c.9-.02 1.2.228 1.2.9 0 .953-.06 1.968.36 2.838.7 1.388 2.4 1.843 4.28 1.988.55.04 1.54.3 1.54.456.03.994-.16 1.947-.27 2.9zm-79.2-14.913l7.37.476 14.8.808c1.05.062 2.13 0 3.18-.02l11.12-.166c.88 0 1.77.25 2.65.33.77.062 1.6.04 1.54-.766-.05-.704-.8-.704-1.5-.704-.6 0-1.25-.186-1.85-.207l-10.5-.3c-3.34-.04-6.68.062-10.05.04-1.05 0-2.07-.25-3.12-.33l-10.26-.62c-1.4-.062-2.82.166-4.2.33-1.05.124-1.33.725-1.38 1.45-.08 1.305-.25 2.6-.33 3.915l-.58 11.35c-.06 2.65.25 5.302.33 7.933.06 1.76-.08 3.5-.06 5.26.03 2.34.12 4.68.2 7.022.03.684.2 1.367.22 2.05.1 2.092 1.74 3.355 4.47 3.46l15.65.538c3.12.062 6.24-.145 9.33-.248l9.72-.3c1.2-.062 2.53-.104 3.58-.497.78-.3 1.6-1.118 1.63-1.74.17-2.465.06-4.95.03-7.436 0-.3-.1-.62-.1-.932l-.44-9.797-.22-6.1c-.1-1.802-.28-3.604-.42-5.385-.1-1.595-1.38-2.63-3.12-3.273-.96-.352-2.18-.394-3.3-.414-4.17-.02-8.33.062-12.53.04-1.52 0-3.04-.083-4.53-.3-2.48-.394-4.77.04-7.06.684-1.22.352-1.82 1.036-2.02 1.906a13.63 13.63 0 0 0-.3 2.775c.08 2.983.33 5.945.33 8.927 0 3.75-.14 7.477-.25 11.226 0 .518-.08 1.036-.14 1.698 1.25.746 2.7 1.2 4.67.932 1.88-.248 3.84-.103 5.74-.166l10.38-.3c1.1-.04 2.15-.808 2.15-1.595l.03-7.8c-.06-2.36-.42-4.743-.36-7.105.03-1.346-.14-2.465-1.8-3.2-.42-.187-.94-.3-1.44-.352-1.57-.166-3.17-.352-4.75-.435-2.5-.145-3.67.642-3.78 2.6-.05.9.2 1.76.25 2.65l.3 6.7c.03.684.72.932 1.27.725.53-.186 1.13-.766 1.1-1.18-.06-1.636-.33-3.252-.5-4.867l-.28-3.604c-.1-1.263.25-1.553 1.9-1.43 1.27.083 2.54.207 3.8.33 1.2.124 1.7.725 1.74 1.574.05 1.284.05 2.6.08 3.873l.33 10.7c.03 1.056-1.08.87-1.82.9-2.6.124-5.2.186-7.78.228h-8.86v-5.24l-.06-6.07c0-.207-.08-.414-.08-.62l.03-11.35c0-.3.35-.787.7-.9 1.82-.54 3.58-1.036 5.68-.746 2.1.3 4.3.248 6.46.3l12.78.228c2.07.062 2.87 1.18 2.54 2.713-.2.85.22 1.76.25 2.63l.44 9.052c.03.373.1.746.1 1.14.08 1.284-.08 2.63.3 3.873.72 2.403.28 4.785.33 7.187a42.33 42.33 0 0 1-.16 4.64c-.03.248-.58.663-.9.684l-14.85.663c-2.43.083-4.86.124-7.3.104a308.9 308.9 0 0 1-7.7-.104l-6.93-.25c-1.43-.062-2.18-.62-2.3-1.678-.85-8.4-.66-16.777-.55-25.166.05-3.355.5-6.7.74-10.066.25-.87.2-1.76.2-2.88zm-33 7.622c.6 1.553 1.04 3.17 1.87 4.66 1.02 1.802 3.48 2.423 5.63 3.252.56.207 1.05.56 1.63.62 1.2.145 2.4.27 3.62.207 3.12-.145 5.77-1.264 7.95-2.838 2.12-1.574 3.86-3.438 4.08-5.8.1-.766-.1-1.595-.38-2.34-1.22-3.563-3.65-6.4-8.4-7.85-4.97-1.512-10.2-.145-13.06 3.2-2.04 2.382-2.46 4.764-2.6 6.815a.96.96 0 0 0-.35.062zm20.1-4.122c-1.93 3.75-4.55 6.98-8.14 10.046l-7.65-10.046h15.8zm-21.33 28.895c.08 2.092.44 3.915 2.02 5.53 1.32 1.367 3.25 1.926 5.16 2.568.2.062.52 0 .66.104 2.65 1.802 5.5.746 8.06.062 3.73-.974 6.27-3.2 7.78-5.862.7-1.222.64-2.858.3-4.246-.75-3.107-2.87-5.654-6.57-7.353-5.1-2.382-11.5-1.45-14.9 2.527-1.6 1.885-2.48 4.826-2.5 6.67zm15.87 6.504V28.646c3.3.6 6.2 4.225 6.52 7.8.24 2.672-3.56 5.613-6.52 6.566zm-8.58.166c-1.13-.497-2.07-.85-2.93-1.284-1.93-1.015-2.12-2.693-2.37-4.225-.42-2.568.58-4.992 2.35-7.167.74-.9 1.62-1.926 3.45-2.196l-.5 14.872zm-41.38-19.243a12.38 12.38 0 0 0-6.76 1.326c-.72.352-1.38.828-1.85 1.367-1.02 1.14-2.45 2.092-2.8 3.563-.42 1.823-1.14 3.604-.86 5.5.33 2.36 1.52 4.4 4.17 5.78.85.435 1.9.663 2.84 1.015.6.207 1.13.54 1.77.684.6.166 1.27.27 1.9.228 2.6-.124 5.16-.373 7.37-1.574 3.2-1.76 5.7-3.873 6.3-6.94.05-.228-.03-.476-.06-.725-.36-2.382-1.13-4.62-3.2-6.545-2.32-2.113-5.16-3.48-8.8-3.666zm-.96 3.273l-2.3-1.698c2.12-.518 2.78-.25 3.17 1.015l2.43 2.32 5.93 7c1.05 1.243 1.08 1.222-.4 2.32l-4.9-5.5-2.5-3.2-1.43-2.258zm-3.3-1.367l10.88 12.656c.44.497.55.85-.22 1.16-.7.27-1.33 1.036-2.13.124l-6.04-6.752-3.98-4.992c-.27-.352-.5-.725-.77-1.12l2.26-1.077zm-3.23 2.196c.14.124.33.228.45.352l4.66 5.675 5.7 6.193c.2.207.33.538.25.746-.33.6-2.6.663-3.06.124l-8.7-10.5c-.9-1.077-.77-1.698.7-2.6zm8.56-2.32c5.08.248 10.07 6.007 8.5 9.714l-8.5-9.714zm-10.68 5.655l.44-.124 8.64 10.626c-1.44.3-3.04-.414-3.92-1.512-1.57-1.988-2.95-4.08-4.9-5.84-1.32-1.222-.74-2.092-.27-3.148zm4.14 9.238c-3.15-.746-5.1-2.962-4.67-5.26l4.67 5.26zm2.9-19.47c3.7-.25 6.8-.684 9.2-2.506 1.3-.994 2.6-2.05 3.64-3.2 1.82-1.968 1.52-4.143.72-6.317-1.1-3.003-3.42-5.282-7.12-6.7-4.92-1.885-10.68-.85-13.9 2.734-1.85 2.092-2.62 4.412-2.73 6.794-.1 2.693.75 5.282 4 6.96.83.414 1.8.663 2.7.994l3.48 1.222zm8.03-16.467c.58.56 1.2 1.118 1.7 1.72 1.5 1.657 2.32 3.52 2.37 5.5.03.9-.08 1.968-.7 2.693-1.74 2.07-4.03 3.8-7.2 4.578-1.35.33-2.9.476-4.28.33-1.27-.145-2.46-.787-3.67-1.243-.72-.27-1.46-.518-2.04-.9-2.07-1.43-2.54-3.376-2.5-5.344.06-1.305.67-2.6 1.14-3.894.66-1.802 2.04-3.23 4.27-4.267l1.4 4.412 1.8 5.054c.22.56.58 1.5 1.04 1.554 1.25.186 1.14-.828 1.5-1.408l5.14-8.782zm119.5-2.527l-1.96 1.802-4.23 3.2c-.7.58-1.07 1.367-.4 2.07.6.684 1.38 1.305 2.2 1.823l4.5 2.6c.1.062-.1.663-.36.83l-5.6 3.2c-.6.352-.82 1.968-.24 2.423.74.58 1.6 1.098 2.45 1.616l5.05 2.838-5.76 3.625c-1.36.932-2.65 1.947-3.8 3.045-.7.704-.33 1.5.56 2.092l7.23 4.9c.9.6 1 1.14.05 1.698l-3.92 2.216c-.7.394-1.1 1.2-.55 1.72.58.56 1.22.725 2.13.248 1.93-1.036 3.94-1.947 5.3-3.5.85-.974.7-2-.14-3.003-1.9-2.196-5.05-3.314-7.37-5.137-.14-.124-.3-.25-.42-.33l3.6-2.817 4.1-2.568c2.07-1.367 1.87-2.983-.28-4.246l-5.3-3.438 4.92-3.045c.77-.518 1.65-1.16 1.95-1.864.4-.85-.38-1.616-1.43-2.092l-2.43-1.12c-.14-.083-.14-.33-.2-.497l-3.48-1.802 3.9-3.252c.7-.54 1.57-.932 2.38-1.408.02-.062.05-.124.05-.207.08-.54.47-1.2.17-1.553-.53-.684-1.47-.54-2.27-.062-.08.02-.25-.02-.38 0zM1065 22.93c.16 2.196.36 3.915 1.68 5.5 1.33 1.595 3.42 2.36 5.58 2.983 1.18.33 2.04 1.16 3.6 1.015 3.22-.3 6.15-.808 8.7-2.568 2.35-1.616 4.3-3.293 4.72-5.717.14-.828.08-1.74-.14-2.568-1.1-4.018-3.97-7.063-9.3-8.4-2.76-.684-5.58-.58-8.34.642-2.67 1.18-4.22 2.962-5.35 4.9-.8 1.43-.83 3.086-1.13 4.205zm10.5-8.74c2.92.062 5.38.62 7.06 1.657 3.12 1.947 4.78 4.495 4.83 7.54.03.87-.2 1.864-.8 2.568-1.27 1.47-2.8 2.838-4.94 3.708-2.46.974-4.86 2.113-7.62.54-.13-.062-.36-.02-.52-.083-1.33-.414-2.82-.684-3.92-1.326-2.18-1.284-2.73-3.356-2.62-5.22.14-2.65.94-5.323 3.6-7.374 1.44-1.118 3.2-1.885 4.92-2zm1.9 2.65c-1.6.435-3.42.62-4.72 1.326-3.26 1.802-3.86 3.5-2.54 6.442.8 1.802 2.57 3.107 4.75 3.956.77.3 2.07.145 2.98-.124 3.9-1.16 6.43-4.288 5.52-7.477-.6-2.133-2.9-3.998-5.85-3.873a.59.59 0 0 1-.14-.248zm5.02 5.696l-1.07 2.278c-1 1.636-2.7 2.6-5.05 2.983-.33.042-.8.02-1.02-.124-1.2-.808-2.57-1.553-3.4-2.548-1.24-1.5-1.38-3.23-.33-4.826 1.1-1.678 4.9-2.693 7.3-2.092 2.1.518 3.4 2.154 3.58 4.33zm174.96-4.53l-1.87 4.868-2.27 6.835-1.57 6.276-1.2 6.628c-.08.435-.3.87-.3 1.305 0 .352.1.808.4.994.28.166.9.062 1.33.04l3.92-.207 8.9.062 8.67.3c2.02.103 3.06-.83 2.4-2.216-2.04-4.412-4.22-8.803-6.1-13.256-1.35-3.17-2.32-6.442-3.5-9.652-.56-1.512-1.25-3.024-1.9-4.515-.85-2.03-1.7-4.06-2.65-6.048-.14-.3-.7-.684-1-.663-.44.02-1.08.352-1.2.642-.5 1.284-.83 2.6-1.2 3.894l-1.02 3.998a4.29 4.29 0 0 1-.22.663c.1 0 .22.02.33.04zm-4.83 25.166c.25-.787.58-1.367.6-1.947.17-3.438 1.02-6.814 2.04-10.17.5-1.678 1.08-3.335 1.6-4.992l3.15-9.652c.36-1.14.53-2.32.8-3.48 4.1 10.2 7.7 20.444 13.03 30.24h-21.23zm40.1-37.8l-4.78-.435c-.85-.062-1.7-.04-2.6-.04-3.64.02-7.32-.02-10.96.104-1.63.062-3.23.497-4.83.766-1.2.207-1.46.684-.8 1.47 2.6 3.148 4.3 6.566 5.47 10.15.2.58.63 1.14 1 1.698l3.1 4.68c.4.642.7 1.346 1.2 1.968.33.394 1.02.974 1.4.9.66-.083 1.43-.54 1.73-.973 1.3-1.906 2.4-3.873 3.62-5.8l3.9-6.152 4.22-6.918c.47-.83 0-1.78-1.65-1.43zm-1.33 1.43a2.8 2.8 0 0 0 .36.31l-10.5 17.005c-1.36-1.367-2.46-2.423-2.74-3.998-.27-1.47-1.46-2.858-2.2-4.287l-4.48-8.368c1.74-.994 3.9-.953 5.97-.974 2.62-.02 5.24.228 7.9.3 1.88.04 3.78 0 5.7 0zm-43.6-1.803l-8.14-.58c-1.35-.062-2.73.166-4.08.27l-2.05.207c-1.35.166-1.76.746-1.32 1.698l3.3 7.374 3.28 5.986 3.54 6.048c.25.414.9.9 1.46.974.8.104.97-.456 1.13-1.036l1.82-6.1 2.5-7.684c.4-1.43.52-2.9.85-4.35.2-.766.47-1.367-.44-2.092-.63-.54-1.02-.87-1.85-.725zm-.58 5.157l-.16 1.098-1.77 6.235-1.74 5.634-.6.02-8.6-16.612c2.84-.33 5.38-.497 7.92-.083.4-.062.8-.186 1.2-.186l3.86.3c.2.02.47.456.45.684-.1.974-.34 1.947-.56 2.92zm-911.372 4.97c2.177.145 4.382.062 6.56.02l8.764.04c1.57.124 3.03-.04 4.575-.04 1.57-.02 3.17.228 4.74.3l5.43.145c1.102 0 2.26-.974 2.232-1.802-.027-.85-.77-1.408-2.04-1.43l-10.445-.145-14.524-.166c-1.764-.02-3.527 0-5.32 0l.028 3.086zm0 6.835c.303-.083.58-.25.882-.27l7.744-.104c4.74.145 9.425-.27 14.1-.393 2.508-.083 5.016-.02 7.524-.02 1.13 0 1.957-.3 2.26-1.18.33-.953-.413-1.616-1.378-1.906-1.02-.3-2.232-.3-3.362-.3-1.7-.02-3.445.04-5.154.104-.964.02-1.902.04-2.866.124-1.847.166-3.665.476-5.54.56-1.598.083-3.224-.104-4.85-.083-1.46.02-2.894.166-4.354.186-1.406.02-2.8-.062-4.217-.062-.276 0-.58.166-.854.25.055 1.036.055 2.07.055 3.107z"/><path d="M335.768 38.53l8.488.186 6.23-.145c1.763.062 3.472.062 5.236-.083 1.516-.104 3.06.248 4.602.3h5.98c1.13-.062 1.57-.808 1.57-1.595 0-.808-.578-1.43-1.653-1.553-1.406-.166-2.84-.27-4.272-.27-3.197-.02-6.366.062-9.563.062-3.94 0-7.882-.062-11.823-.062l-4.768.04c-.027 1.036-.027 2.07-.027 3.107zm0 6.627l7.358-.083 3.97-.124 6.862-.186 3.417-.166 8.626-.04c1.24-.02 2.122-.642 2.178-1.533.055-.85-.496-1.47-1.57-1.574-1.406-.145-2.84-.104-4.272-.104-1.957 0-3.913-.02-5.87.062l-5.402.373-14.634.103c-.22 0-.413.104-.634.166l-.027 3.107zm0-17.813l7.772-.187 7.055-.124 7.937-.394 6.146.083c2.094.083 3.28-.56 3.004-1.76-.083-.394-.47-.87-.9-1.056-.8-.3-1.7-.538-2.6-.56-2.04-.04-4.107.04-6.174.124l-12.54.56-6.504.145-3.225.04.028 3.128zm0-18.02l3.913.124 7.083.104 13.23.166 4.96-.228c1.35-.062 2.177-.642 2.15-1.616-.028-.994-.717-1.47-2.232-1.45l-9.398.124-7.1-.228c-1.93-.02-3.885.083-5.815.145-.33 0-.633.062-.964.04l-5.843-.062a98.7 98.7 0 0 1 .028 2.879zm0 23.406l8.02.04 5.842.228 3.638.124 10.225-.393 2.04-.02c1.295-.124 1.598-.808 1.488-1.657s-.744-1.305-1.9-1.284l-9.95.124c-2.922 0-5.843-.04-8.764-.083l-10.6-.186-.027 3.107zm300.727 3.686l.22 3.666c.027.932-.056 1.864.082 2.776.055.33.607.62.937.932.33-.3.9-.62.9-.953l-.028-7.995c-.55-.33-1.02-.83-1.653-.994-1.378-.33-2.84-.456-4.272-.725-.33-.062-.827-.33-.827-.497l-.027-5.634 8.35 1.18c.303.04.55.393.717.642 1.02 1.346.137 2.755.193 4.122l.275 3.376.193 5.157.028 1.346c-.083 1.926.082 2.07 2.728 2.175 1.075.04 2.232.145 3.224-.083.717-.166 1.654-.787 1.764-1.284.358-1.78.44-3.604.496-5.427 0-.3-.716-.808-1.157-.85-.855-.062-.827.456-.8 1.015.055 1.43 0 2.858-.138 4.287-.055.684-.634 1.12-1.654 1.056l-2.508-.145.028-8.596c0-.207.44-.54.716-.56 1.02-.083 2.067-.062 3.115-.062l2-.02 5.264.56c1.158.166 1.544.953 1.516 1.7l-.276 4.93-.33 3.314c-.055.56.027 1.16.937 1.118.386-.02.964-.58 1.047-.953.303-1.5.468-2.983.7-4.578l4.2-.166c1.02 0 1.654 1.015 1.378 1.968-.303 1.036-.66 2.05-.827 3.107-.055.27.44.787.772.85.358.062 1.13-.27 1.185-.518.386-1.553.7-3.107.854-4.68.1-1.077-1.543-2.113-3.142-2.154-.744-.02-1.46 0-2.204 0h-2.15l-.138-2.258c.083-2.548-2.204-3.107-4.437-3.314-1.764-.166-2.094-.394-1.8-1.678.027-.145.1-.27.1-.414.22-1.906.22-2 2.84-2.05 2.508-.04 5.043.104 7.55.25 1.543.104 2.315.974 2.232 2.278l-.137 2.672c0 .58.055 1.263 1.157 1.263 1.157 0 1.075-.642 1.02-1.263l-.36-3.998c-.137-1.367-1.295-2.403-3.06-2.486l-9.976-.124c-2.04.04-3.307 1.14-3.445 2.693-.055.704 0 1.43 0 2.3h-6.476l-.36-3.873c-.138-1.574-1.626-2.133-3.307-2.506-1.7-.393-2.04-.683-1.984-2 .027-.3.083-.6.138-.994l5.208.186 10.28.33 9.315.476 3.28.062c.44-.02.854-.373 1.267-.58-.33-.27-.66-.746-1.02-.787l-5.54-.352-7.027-.393c.055-.953.027-1.843.22-2.693.055-.228.772-.518 1.185-.497l3.94.373 6.256.352c.7.04 1.46.062 1.516-.704.055-.787-.717-.83-1.488-.9l-9.095-.725c-.083 0-.193-.02-.276-.02-.633-.062-1.736-.062-1.8-.228-.22-.828-.248-1.698-.165-2.527 0-.124.826-.3 1.267-.27l9.453.145c.772.02 1.378-.187 1.35-.87 0-.663-.634-.766-1.323-.766h-10.72v-4.4l.965.124 7.055.414 4.658.062c.385-.02.77-.435 1.13-.663-.414-.25-.772-.704-1.213-.725l-8.488-.373c-1.57-.104-3.142-.394-4.685-.684-1.075-.186-1.626.04-1.626.85l.027 11.786c0 .808-.027 1.657-.248 2.444-.083.25-.882.518-1.35.518-1.68.02-3.4-.062-5.07-.145l-6.146-.3c-.827-.04-1.406-.25-1.295-.994.027-.27-.083-.538-.083-.83.028-1.843-1.57-2.962-3.97-2.713-1.212.124-2.425.352-3.582.642-.414.104-.662.54-.965.83.414.186.855.538 1.268.518 1.075-.062 2.122-.373 3.17-.414 1.7-.083 2.067.145 2.15 1.4l.027 5.53c-.716-.062-1.57-.062-2.342-.248-1.736-.394-3.473.3-3.555 1.636-.1 1.367-.028 2.755-.055 4.122v1.554l-4.08-.3c-.22-.02-.524-.456-.524-.704l-.027-5.965-.055-2.382.192-7.415c.028-.787-.027-1.574-.055-2.382 0-.497.248-.746.992-.725l12.182.518c1.543.083 3.086.394 4.63.54 1.047.103 1.736.352 1.736 1.243 0 .83.138 1.657.138 2.465 0 .6.055 1.16 1.074 1.16.993 0 1.02-.54.965-1.098l-.1-2.6c-.193-2-.827-2.465-3.528-2.713l-3.252-.33V9.137c0-.746.414-1.077 1.488-1.118l6.56-.414c.385-.04.716-.456 1.047-.684-.358-.207-.717-.56-1.103-.56-1.9-.02-3.83.02-5.732.062l-2.728.104c-1.103-.02-1.57.352-1.544 1.18l.028 3.48c.028.6-.165.953-1.075.808-.082-.02-.193-.02-.275-.02-3.528-.207-3.914-.62-3.5-3.293.1-.746-.138-1.553-.36-2.3-.082-.228-.634-.373-.992-.56-.193.3-.468.58-.55.9-.165.808-.33 1.616-.33 2.423 0 .725.193 1.47.303 2.32h-5.925l-.027-4.474c-.028-.518.027-1.284-1.02-1.222-1.02.04-.937.704-.965 1.326l-.386 5.82-.1 4.93.028 11.37.523 13.34c.056 1.4.634 1.76 2.398 1.802l1.35.103c2.563.166 3.252-.248 3.582-2.3.083-.538.055-1.098.083-1.636l-.193-2.962c-.028-.58-.22-1.14-1.13-.974-.386.083-.854.663-.854 1.036-.055 1.12.165 2.258.138 3.376 0 .497-.276 1.015-.58 1.45-.44.642-1.268.518-1.902.27-.358-.145-.716-.54-.8-.87-.193-1.015-.303-2.05-.33-3.086v-4.66l4.603.27 5.567.497c1.13.25 1.57.746 1.157 1.553zm-111.45-24.213c-3.803-.25-7.523-.497-10.913-1.926a51.23 51.23 0 0 1-4.85-2.403c-3.28-1.843-7.055-2.465-11.05-2.506-1.185 0-2.425.186-3.583.435-4.933.994-9.838 2.05-14.275 4.06-2.04.9-4.3 1.284-6.725 1.056-.854-.083-1.736.02-2.6-.02-4.052-.145-7.056-2.05-10.252-3.542-4.162-1.926-8.103-1.512-12.237-.04-2.232.787-3.28 2.34-4.85 3.542-.22.166-.44.414-.44.62 0 .414.165.83.275 1.243.496-.124 1.185-.124 1.5-.373 1.102-.87 1.93-1.926 3.114-2.713 2.976-2 7.606-2.693 11.272-.932 2.177 1.056 4.244 2.3 6.614 3.086 3.6 1.2 7.496 1.574 11.354.725 1.874-.414 3.666-1.098 5.43-1.76 3.693-1.388 7.44-2.6 11.603-2.94.276-.02.524-.104.8-.166 4.327-1.2 8.24-.394 11.988 1.346 2.62 1.2 5.1 2.65 7.938 3.438 2.673.766 5.677.9 8.543 1.16 1.543.145 3.197.186 4.74 0 1.736-.207 3.473-.642 5.126-1.16 1.6-.518 3.114-1.2 4.603-1.905a35.08 35.08 0 0 0 3.417-1.843c2.646-1.636 5.76-1.968 8.957-1.823 3.445.145 5.787 1.678 7.496 3.853.66.85 1.35 1.698 2.15 2.486.25.228 1.075.394 1.35.25.386-.186.827-.83.7-1.015-1.185-1.533-2.343-3.086-3.858-4.432-1.075-.953-2.674-1.574-4.052-2.36-1.598-.9-3.445-.435-5.18-.456-3.693-.062-6.835.994-9.866 2.548-2.84 1.47-5.843 2.838-8.957 3.956-1.57.518-3.5.373-5.264.518zm64.295 19.325l1.874-4.867 2.26-6.835 1.57-6.276 1.185-6.628c.083-.435.303-.87.303-1.305 0-.352-.1-.808-.413-.994-.276-.166-.882-.062-1.323-.04l-3.914.207a318.11 318.11 0 0 1-8.901-.062l-8.654-.3c-2.012-.104-3.06.83-2.398 2.216 2.04 4.412 4.217 8.803 6.1 13.256 1.35 3.17 2.315 6.442 3.5 9.652.55 1.512 1.24 3.024 1.902 4.515l2.645 6.048c.138.3.7.683.993.663.44-.02 1.074-.352 1.185-.642.496-1.284.826-2.6 1.185-3.894l1.02-3.998c.055-.228.138-.435.22-.663a1.81 1.81 0 0 1-.331-.041zm4.823-25.166c-.248.787-.58 1.367-.606 1.947-.166 3.438-1.02 6.814-2.04 10.17-.496 1.678-1.075 3.335-1.598 4.992l-3.142 9.652c-.358 1.14-.524 2.32-.8 3.48-4.08-10.2-7.7-20.443-13.008-30.24h21.193zm-39.133 9.175l-.8-1.222c-1.213-1.595-4.355-2.568-6.725-2.568-3.665 0-6.283 1.533-9.122 2.858l-5.512 2.403c-1.295.456-2.783.663-4.216.746-3.528.186-6.918-.186-10.115-1.533-3.913-1.636-7.854-3.356-12.374-3.853-2.535-.3-5.264-.476-7.716-.04-3.335.58-6.477 1.78-9.73 2.693-2.04.56-4.106.994-6.118 1.595-3.638 1.077-7.47.953-11.272 1.015-3.445.062-6.283-1.264-9.287-2.278-2.6-.87-5.402-1.616-8.185-1.802-1.5-.104-3.115 1.056-4.685 1.678-.25.104-.552.3-.634.497-.166.373-.193.766-.276 1.14.55.04 1.213.228 1.654.062.716-.248 1.295-.746 1.984-1.077 2.398-1.18 4.713-.435 6.972.3 1.516.497 2.894 1.243 4.4 1.802 2.177.787 4.437 1.264 6.917 1.2 1.985-.062 4.024.3 6.008.166a40.36 40.36 0 0 0 6.918-1.098c4.4-1.14 8.736-2.506 13.1-3.728 3.97-1.118 7.992-1.077 11.906.042 3.086.9 6.283 1.78 9.04 3.107 3.445 1.657 7.138 1.968 10.94 1.906 4.08-.083 7.662-1.346 10.97-3.2 2.26-1.264 4.63-2.568 7.524-2.962 2.287-.3 4.244.352 5.76 2.05.44.518.8 1.2 1.874.766.358-.145.55-.414.8-.642zm-9.067 3.17l-8.985 2.403c-2.6.808-4.933 2.258-7.606 2.693-4.63.787-9.287.435-13.724-1.14-2.812-.994-5.87-1.553-9.04-1.408-2.342.104-4.768.104-7.028.518-2.8.518-5.43 1.616-8.212 2.154-3.445.642-6.642 2.092-10.362 1.947-3.115-.104-6.256.04-9.343-.27-1.8-.186-3.528-.973-5.154-1.657-3.362-1.43-6.752-2.568-10.693-1.657-.496.124-1.185.787-1.13 1.14.1.642.827.684 1.7.476 2.508-.58 4.878.104 7.138.828 2.453.787 4.768 2 7.303 2.403 3.28.518 6.752.62 10.142.476 2.563-.104 5.098-.85 7.634-1.388 1.7-.352 3.362-.808 5.043-1.2 2.95-.684 5.843-1.574 8.874-1.968 4.3-.56 8.6-.166 12.595 1.284a22.16 22.16 0 0 0 7.882 1.367l5.898-.04c2.04-.062 3.885-.56 5.567-1.45 2.948-1.553 6.173-2.65 9.673-3.252.58-.104 1.185-.124 1.764-.124.882.02 1.405-.33 1.267-.9-.1-.414-.7-.746-1.212-1.222zm8.157 25.456l4.768.435c.855.062 1.7.04 2.6.04l10.94-.104c1.626-.062 3.224-.497 4.823-.766 1.212-.207 1.46-.684.8-1.47-2.6-3.148-4.3-6.566-5.457-10.15-.193-.58-.634-1.14-.992-1.698l-3.087-4.68c-.413-.642-.7-1.346-1.185-1.968-.33-.393-1.02-.974-1.405-.9-.662.083-1.433.538-1.736.974-1.296 1.906-2.398 3.873-3.6 5.8l-3.886 6.152-4.216 6.918c-.47.828 0 1.78 1.653 1.43zm1.323-1.43c-.1-.103-.22-.207-.358-.3l10.5-17.005c1.35 1.367 2.453 2.423 2.728 3.998.276 1.47 1.46 2.858 2.205 4.288l4.465 8.368c-1.736.994-3.886.953-5.953.973-2.618.02-5.236-.228-7.882-.3-1.874-.04-3.776 0-5.705 0zm43.544 1.802l8.13.58c1.35.062 2.728-.166 4.08-.27l2.04-.207c1.35-.166 1.764-.746 1.323-1.7l-3.307-7.374-3.28-5.986-3.527-6.048a2.4 2.4 0 0 0-1.461-.973c-.8-.104-.965.456-1.13 1.036l-1.82 6.1-2.48 7.684c-.414 1.43-.524 2.9-.854 4.35-.193.766-.47 1.367.44 2.092.634.538 1.02.87 1.847.725zm.58-5.157l.165-1.098 1.764-6.235 1.736-5.634.606-.02 8.57 16.612c-2.838.33-5.374.497-7.9.083-.386.062-.8.187-1.185.187l-3.86-.3c-.192-.02-.468-.456-.44-.684.1-.973.33-1.947.552-2.92zm-96.46 4.557l11.465-.33c3.748 0 7.496.186 11.216.3.524.02 1.048.124 1.57.207 1.626-.02 3.28-.104 4.906-.083l10.858.3c.193 0 .414.04.55-.02.33-.166.634-.394.937-.58-.303-.145-.633-.414-.964-.414l-7.028-.166-33.87-.352c-3.666-.02-7.33.186-10.996.27-1.103.02-2.205-.083-3.308-.062l-7.137.124-22.268.808c-.414.02-.827.33-1.213.518.386.166.772.456 1.185.456l10.004-.207 16.618-.766c5.374-.166 10.75-.124 16.123-.166.44-.04.882.083 1.35.166zm-127.352-.975v-5.427c0-.538-.137-1.098-.165-1.636l-.496-5.862-.772-5.22-.578-9.238-.028-3.48.138-3.107c0-.25.138-.497.027-.704-.137-.27-.413-.497-.633-.746-.276.207-.8.414-.8.642l-.22 5.137-.1 6.462c.055 1.43.385 2.858.55 4.288l1.653 14.996c.193 1.947.083 3.894.166 5.84.027.3.413.58.634.85.192-.248.523-.497.578-.766.138-.684.138-1.367.193-2.05-.027.02-.082.02-.138.02zM378 31.404l.55 4.702.055 6.856c.028 1.2.248 2.403.47 3.583.055.228.468.414.716.62.138-.228.413-.456.413-.684l-.468-13.484c-.138-2.113-.882-4.184-1.075-6.297-.386-3.8-.606-7.58-.8-11.37-.1-2.258.055-4.536 0-6.794 0-.33-.55-.642-.854-.974-.22.33-.662.642-.662.974.028 2.775.138 5.55.22 8.327.027 1.5-.083 3.003.082 4.474.22 2.092.7 4.184.992 6.276.193 1.243.33 2.506.47 3.77-.055 0-.083 0-.1.02zm22.156-1.804l.9 5.365.58 6.152.027 5.178c0 .3.44.62.7.953.22-.3.606-.62.606-.953.1-2 .33-4.04.166-6.028-.22-2.6-.855-5.178-1.213-7.767l-.606-5.53-.965-6.814c-.22-2.05-.248-4.122-.303-6.172l-.138-6.276c0-.3-.44-.58-.7-.87-.22.3-.606.58-.606.87l.55 12.987.248 4.225c.166 1.284.55 2.548.827 3.832.055.27.055.54.083.83-.055 0-.1 0-.166.02z"/><path d="M434.044 6.755l.414 11.08c.1 1.78.44 3.563.66 5.365l1.57 12.324.717 5.696c.082 1.077-.083 2.175-.138 3.273 0 .25-.138.497-.055.725.138.373.413.746.634 1.098.192-.352.496-.704.55-1.056.193-.974.44-1.968.358-2.94-.386-3.666-.9-7.312-1.323-10.957l-.58-5.696c-.082-.642-.358-1.264-.468-1.906l-.827-6.814c-.1-1.264 0-2.527-.027-3.8l-.193-6.42c0-.27-.44-.518-.662-.766l-.634.787zm.772 31.587l-.9-7.477-1.434-10.563-.964-8.492c-.1-1.408.1-2.817.193-4.225 0-.25.1-.497.027-.725-.1-.25-.413-.435-.633-.642-.193.186-.524.394-.552.58-.1 1.512-.275 3.024-.165 4.536.276 4.246.58 8.472 1.047 12.697.248 2.32.992 4.598 1.213 6.918.358 3.77.523 7.56.7 11.35.027.85-.193 1.698-.193 2.548 0 .27.33.56.524.83.275-.27.716-.54.744-.83.165-1.905.248-3.8.413-6.504zm-44.398-26.056l.028 6.193c.165 2.278.523 4.557.88 6.835l1.075 5.883.937 8.68c.138 1.636.028 3.293.028 4.95 0 .352-.055.704.055 1.036.055.166.413.373.634.373.165 0 .496-.3.496-.456l-.028-8.078c-.303-3.355-.992-6.7-1.46-10.046-.386-2.775-.717-5.53-.992-8.306a57.71 57.71 0 0 1-.331-5.323c-.055-1.823.027-3.666.055-5.5 0-.145.028-.3-.055-.414a12.45 12.45 0 0 0-.799-.787c-.193.27-.552.54-.552.83-.055 1.367-.027 2.755-.027 4.143 0-.02.027-.02.055-.02zM399.347 40l-.44-4.433-1.102-8.306c-.55-3.956-1.213-7.892-1.626-11.848-.248-2.3-.055-4.62-.055-6.918 0-.166.082-.352 0-.518-.1-.3-.33-.56-.496-.85-.248.27-.717.54-.744.808-.1 1.346-.22 2.693-.138 4.018.193 3.2.386 6.36.77 9.55.414 3.438 1.158 6.835 1.6 10.274.303 2.278.386 4.578.524 6.856a90.94 90.94 0 0 1 .137 5.22c0 .663-.165 1.326-.165 2 0 .248.276.497.44.746.248-.248.7-.476.744-.746.193-1.264.276-2.527.358-3.8.055-.684 0-1.367 0-2.07.1.04.166.04.193.04zm16.618-30.987l.8 8.534.33 4.62.662 6.276.66 6.048 1.268 8.927c.1.808-.1 1.636-.055 2.465.027.248.386.497.606.746.22-.248.662-.518.662-.766l-.524-5.406-.55-4.702-.855-6.65c-.137-1.388-.082-2.796-.192-4.184l-.607-5.137-.55-8.016-.165-4.225c-.028-.25-.36-.476-.552-.704-.22.25-.55.456-.633.725-.138.476-.083.953-.138 1.45h-.166zm10.032 2.32l.028 6.297c.165 2.258.55 4.495.9 6.732l1.047 5.882.965 8.907c.138 1.533.027 3.086.027 4.64 0 .373-.055.766.083 1.118.055.186.47.3.744.456.138-.186.386-.373.386-.56l.055-6.566c-.165-2.527-.606-5.075-.964-7.602l-1.46-9.88c-.303-2.568-.386-5.137-.496-7.726l-.028-5.655c0-.33-.413-.642-.634-.973-.248.33-.66.663-.688 1.015-.083 1.305-.028 2.6-.028 3.915H426zm-4.244-1.803l.055 7.892c.248 2.88.882 5.737 1.268 8.617l1.268 11.786.137 4.702c0 .87-.165 1.76-.1 2.6.028.3.496.56.772.828.165-.25.468-.476.468-.725.1-2.133.414-4.288.22-6.42-.276-3.2-.882-6.4-1.323-9.6l-.8-6.027c-.33-3.977-.552-7.954-.772-11.93-.083-1.16-.028-2.34-.138-3.5-.027-.3-.413-.6-.634-.9-.248.3-.606.58-.66.9-.1.58-.028 1.16-.028 1.76.083.04.166.04.276.04zM412.3 7.252V9.22l.028 3.687-.166 4.723.22 7.187c.22 2.6.7 5.157 1.075 7.726l.826 4.888 1.02 6.524.165 1.844c.028.186.386.33.58.476.248-.166.662-.33.662-.518.055-.497-.056-1.015-.138-1.533l-2.563-16.82c-.772-4.93-.414-9.88-.414-14.83a119.12 119.12 0 0 0-.082-4.432c-.028-.33-.33-.642-.496-.974-.248 0-.47.04-.717.083zm-30.95 4.164l.055 8.762c.276 2.817 1.047 5.593 1.598 8.4l.772 4.4.937 7.27c.138 1.533.055 3.086.1 4.62 0 .33.028.704.166.994.082.145.523.248.77.207.166-.02.386-.3.386-.456l-.523-9.114c-.276-2.6-.552-5.178-1.296-7.705-1.185-3.977-1.46-8.016-1.626-12.055-.1-2.734-.082-5.468-.165-8.202 0-.3-.44-.56-.7-.83-.22.27-.606.54-.634.808-.083.953-.027 1.926-.027 2.88.055.04.1.04.165.04zM407.202 44.4L406.1 34.18l-1.047-9.57-.717-5.634-.22-3.956-.248-6.7c-.028-.3-.413-.6-.634-.9-.22.27-.606.56-.58.83l.276 4.288.22 5.53.414 7.436 1.13 7.85.634 6.877.523 5.013c.055.3.524.58.8.87.166-.3.386-.58.496-.9.083-.27.028-.56.028-.83h.028zm-21.304-34.28l.58 11.3c.138 1.823.66 3.625.937 5.447.138.87 0 1.76.1 2.63L388.7 37.1c.22 2.154.138 4.308.166 6.483 0 .828-.083 1.657 0 2.465.027.27.496.538.744.787.165-.27.44-.54.44-.808l.082-8.575c-.137-2.196-.77-4.4-1.13-6.587l-1.185-8.285c-.165-1.326-.192-2.672-.248-4.018l-.385-9.776c-.028-.3-.386-.62-.58-.9-.248.3-.662.56-.717.85-.082.54 0 1.098 0 1.408zm25.465 34.467l-.027-5.572-.717-7.56-.744-7.394c-.1-1.78.083-3.563-.028-5.344l-.7-5.717c-.1-1.305-.082-2.6-.1-3.894 0-.3.083-.642-.027-.932-.083-.207-.414-.373-.634-.56-.22.186-.607.373-.607.56-.027.9.028 1.843.083 2.755l.083 2.672.7 6.027.44 8.4.744 6.462c.1 1.098.055 2.196.1 3.293l.496 8.513c.028.228.358.456.55.684.22-.228.607-.435.634-.663.083-.58.028-1.16.028-1.76-.083.02-.166.02-.276.02zm31.307-1.222l-1.02-9.92-1.378-11.35c-.22-2.07-.193-4.143-.303-6.235l-.33-7.394c-.028-.518-.083-1.036-.248-1.533-.083-.207-.47-.373-.717-.54-.193.207-.523.414-.523.62-.055 1.015-.028 2.05.027 3.066l.44 6.814.965 10.17.882 9.404.937 7.892c.027.27.386.538.58.787.22-.3.496-.56.606-.87.1-.3.083-.62.1-.9.028 0 0 0-.027 0zM615.55 4.642l-10.97-.476c-.496-.02-1.102-.062-1.46.145a1.23 1.23 0 0 0-.606.994c0 .207.55.58.88.58l13.835.373c.7.02 1.406.083 2.067-.04.44-.083.8-.414 1.185-.642-.303-.27-.55-.725-.882-.766-1.35-.166-2.7-.207-4.08-.3.028.04.028.083.028.124zm-3.417 12.738c-3.114 0-6.2-.02-9.315.02-.496 0-1.13.104-1.5.352-.55.394-.1 1.098.745 1.16l4.354.186 6.008-.124 3.5.145c.44.02.937.02 1.295-.145.414-.186.662-.538.965-.828-.386-.248-.744-.663-1.13-.684l-4.933-.04v-.04zm-110 12.22c-2.425 0-3.968 1.077-4.85 2.568-.386.62-.303 1.7.193 2.216.854.932 2.287 1.574 3.94 1.222 1.626-.352 3.087-.9 4.024-2.07.77-.932.88-1.885.165-2.713-.744-.9-2.04-1.243-3.473-1.222zm-3.555 3.5c-.027-1.14.7-1.843 2.233-2.32 1.074-.33 1.82.062 2.728.166 1.185.145 1.405.87.992 1.47-.524.746-1.268 1.533-2.205 1.968-1.846.87-3.858.145-3.748-1.284zm33.43-1.096c.275 3.542 3.803 4.764 7.55 4.702.303 0 .606-.3.937-.435-.303-.145-.606-.373-.937-.456-1.213-.27-2.535-.33-3.665-.725-1.985-.684-2.84-3.46-1.7-4.867 1.185-1.512 2.315-3.045 4.795-3.604.193-.04.22-.435.33-.663-.33-.083-.717-.27-.965-.207-2.067.6-3.83 1.512-4.685 3.17l-1.653 3.086zm-64.544 2.776c0 2.403-.358 3.997-1.82 5.365-.165.166-.33.352-.358.56-.055.27.027.54.027.808.33-.083.827-.083.992-.27 1.847-2.133 2.922-4.35 2.178-6.98-.496-1.76-1.323-3.376-2.894-4.702-.717-.6-1.626-1.077-2.536-1.512-.248-.124-.8.104-1.24.166.248.228.414.54.717.704 3.03 1.595 4.492 3.873 4.933 5.862zm146.174-20.775c-2.6 0-5.18-.04-7.77.02-.496.02-1.296.3-1.433.6-.303.642.385.932 1.157.953l3.638.02 4.602.083c.36 0 .8.062 1.075-.062.44-.186.744-.518 1.103-.787-.386-.3-.717-.642-1.186-.828-.33-.145-.8-.062-1.212-.083.055.02.055.062.027.083zM493.793 39.357c.303-.166.744-.33.717-.414-.083-.228-.304-.456-.524-.62-1.185-.85-2.508-1.595-3.528-2.527-1.185-1.056-1.322-2.36-.496-3.583.717-1.056 1.654-2 2.426-3.024.22-.3.165-.663.22-1.015-.413.062-1.075.02-1.24.207-1.323 1.636-3.28 3.086-3.197 5.2s1.378 3.728 3.748 4.847c.634.27 1.213.58 1.874.932zM513.83 31.6c.055-2.32-1.792-3.8-3.886-5.2-.193-.124-.607-.02-.937-.04.082.25.082.518.275.704.992 1.098 2.26 2.092 2.922 3.293.468.828.385 1.947.082 2.858-.44 1.346-1.35 2.6-2.838 3.563-.303.186-.303.663-.44 1.015.44-.104.964-.124 1.295-.33 2.343-1.533 3.5-3.5 3.528-5.862zm94.996-22.442l5.043.186c.772.02 1.405-.124 1.433-.808s-.55-.808-1.378-.83l-6.972-.145c-.7 0-1.626-.02-1.6.787 0 .808.9.83 1.7.85h1.8c-.027-.02-.027-.02-.027-.04zM481.502 34.966c0 2.486 1.13 3.666 3.444 3.8.304.02.607-.166.9-.27-.138-.166-.248-.456-.44-.518-2.315-.663-3.362-2.133-2.48-3.853.55-1.098 1.515-2.07 2.232-3.128.193-.3.165-.704.248-1.056-.44.124-1.047.166-1.295.414-1.433 1.45-2.867 2.9-2.618 4.598zm-11.272-5.862c.055.3 0 .663.165.953a13.74 13.74 0 0 0 1.185 1.823c1.488 2.03 1.103 4.08.358 6.193-.1.3.166.642.248.953.304-.207.7-.373.882-.642 1.213-1.823 1.02-3.75.303-5.634-.413-1.077-1.074-2.113-1.708-3.128-.193-.3-.7-.476-1.047-.725l-.386.207zm49.937 3.21c-.138-1.388-.882-2.858-2.8-3.853-.275-.145-.716-.062-1.075-.104.083.27.028.62.248.787 2.8 2.195 3.032 3.8.8 6.36l-.772.85c-.1.166-.083.414-.1.62.275-.02.634.02.827-.104 1.57-.9 2.838-2.817 2.893-4.557zm6.283.808c.138 1.2.992 2.092 2.342 2.713.22.104.634-.062.937-.083-.082-.27-.055-.642-.303-.787-1.957-1.243-2.177-2.6-.496-4.04.55-.497 1.268-.9 1.8-1.388.193-.186.083-.538.138-.808-.33-.02-.8-.145-.964-.02-1.792 1.18-3.225 2.527-3.445 4.412zm86.3-11.33l-.524.083c-.744.083-1.763.062-1.598.9.165.787.882.9 1.957.725 1.102-.166 2.315.083 3.5.124.744.02 1.433-.062 1.46-.787.028-.683-.58-.87-1.378-.87h-3.417v-.166zm1.983 3.024c-.77 0-1.598-.104-2.315.04-.413.083-.9.56-.937.87-.027.228.634.683 1.02.725 1.102.104 2.232.083 3.362.062.524 0 1.13-.04 1.57-.228.358-.145.772-.56.744-.83-.027-.248-.606-.58-.992-.642-.8-.104-1.626-.02-2.453-.02v.02zM464.47 35.67c-.248-1.43-.634-2.672-1.93-3.666-.276-.207-.827-.207-1.268-.3.083.3.055.642.248.87 1.598 1.78 1.874 3.625.66 5.593-.1.186 0 .476 0 .704.304-.083.827-.104.9-.248.524-.974.937-1.947 1.378-2.94zm149.647-7.477c-.496 0-1.075-.103-1.488.02-.47.145-.8.518-1.185.787.358.27.716.766 1.13.808a18.75 18.75 0 0 0 3.417 0c.358-.04.882-.538.882-.787-.028-.3-.524-.683-.937-.787-.524-.145-1.185-.042-1.764-.042-.055-.02-.055-.02-.055 0zm-74.603 5.572c.44-.3.744-.414.772-.56.027-.207-.056-.56-.248-.6-1.296-.394-.827-1.036-.36-1.574.496-.58 1.185-1.056 1.7-1.616.22-.228.276-.58.413-.87-.413 0-.882-.104-1.212.02-1.488.56-2.894 2.423-2.563 3.625.165.56.937 1.015 1.488 1.574zm-63.056-.25l.028 2.258c.027.228.386.456.606.684.248-.207.744-.394.744-.6l-.083-4.93c0-.166-.385-.3-.606-.456-.193.186-.523.373-.55.56-.055.83-.028 1.657-.028 2.465-.027.02-.082.02-.1.02z"/><path d="M460.364 36.292l-1.93-3.17c-.1-.145-.496-.207-.744-.3-.082.228-.33.497-.248.704.22.56.744 1.056.855 1.616.165.808.027 1.657.055 2.486 0 .207.138.435.193.642.303-.083.8-.083.9-.228.358-.518.58-1.077.9-1.74zm148.93-25.498c-.44-.04-.937-.207-1.35-.124-.496.104-.9.394-1.35.6.303.3.552.787.965.9a6.09 6.09 0 0 0 2.287.207c.55-.062 1.048-.476 1.544-.725l-1.406-.9c-.138-.083-.44-.02-.7-.02v.083zm-85.296 22.308c.055-.62.193-1.222.165-1.843-.027-.27-.358-.54-.55-.808-.275.228-.772.435-.8.663-.1.994-.1 1.988-.055 2.962 0 .166.44.33.7.497.22-.186.523-.352.606-.56.1-.3.028-.62.028-.932-.028.02-.055.02-.083.02zm21.166-.662c.137-.394.385-.684.275-.83-.606-.85-.303-1.512.606-2.113.193-.124.166-.497.056-.725-.028-.083-.58-.145-.827-.062-1.185.373-1.93 2.154-1.24 2.962.248.25.606.414 1.13.766zM.564 44.08l5.595-4.474.413.02v3.086c.028.58.028 1.18.248 1.72.138.33.717.746 1.102.746.386.02.9-.373 1.185-.684l5.126-5.634.33 1.926c.083.87 0 1.74.138 2.6.083.456.496 1.222.772 1.243.744 0 1.736-.145 2.232-.538l5.154-4.37c.165-.145.44-.228 1.02-.497v4.06c0 .352.083.766.303 1.056s.66.62 1.02.642c.386.02.965-.248 1.185-.518l4.465-5.013c1.268-1.264 1.24-2.32 0-3.5l-1.902-1.968-3.307-2.713 3.528-3.397c1.02-1.14 2.012-2.32 2.618-3.604.248-.518-.524-1.388-1.02-1.988a19.8 19.8 0 0 0-2.535-2.631c-.662-.6-1.488-1.12-2.37-1.553-1.35-.663-2.122-.3-2.15.932-.027.518.1 1.036.1 1.553v3.066l-.44.145-3.776-2.858-2.04-1.678c-.524-.352-1.213-.58-1.847-.85-.44.683-1.102 1.326-1.24 2.05-.193.932.055 1.906-.193 2.983l-2.067-2.133c-1.213-1.056-2.398-2.133-3.803-3.024-1.075-.663-2.012-.207-2.04.85-.028.85.138 1.72.138 2.568 0 .746-.138 1.5-.248 2.548l-5.694-4.6v2.278l3.445 2.485c.276.228.276.9.028 1.14-1.075.9-2.315 1.74-3.472 2.6v2.278l5.815-4.557.496 5.82c-.028 1.926-.413 3.873-.66 6.007l-1.378-.953L.564 33.3v10.77zM8.6 31.403l2.756-2.88 2.783-3.2c.386 1.553.44 3.066.606 4.578.138 1.2 1.24 1.533 2.535.808.303-.166.524-.393.772-.6l3.472-2.92 1.8-1.636.386.228c.193 1.864.58 3.75.55 5.613s-.44 3.728-.744 5.84c-.606-.373-1.02-.56-1.323-.828l-5.2-4.1c-.276-.207-1.323-.25-1.488-.083-.66.663-1.323 1.346-1.02 2.34.22.746.055 1.574.055 2.486L8.6 31.403zm13.284-6.524l-4.74 3.77-.524-.124v-7.767l5.264 4.122zM8.887 42.216l-.358-.124v-8.43l3.28 3.23c.33.352.827.932.634 1.16-1.075 1.43-2.343 2.796-3.555 4.163zm17.252-.166l-.276-.145V33.6l3.445 3.376c.248.248.413.725.276.932L26.14 42.05zM.564 16.74l5.843-4.495.44.042v3.956c0 .3 0 .642.193.85.303.3.772.704 1.185.704.386 0 .882-.394 1.185-.704l5.18-5.717.22 2.734c.055.684.028 1.388.165 2.07.248 1.305 1.295 1.595 2.618.683 1.102-.766 2.095-1.636 3.114-2.465l2.866-2.403c.138.02.276.062.386.083l.193 3.832c.028.456.138.974.47 1.326.468.497 1.24.54 1.7-.02l5.705-6.587c.193-.207.138-.704-.083-.9l-5.1-4.992c-.468-.414-1.378-.518-2.094-.766-.276.58-.717 1.16-.772 1.74-.1 1.388-.027 2.755-.027 4.433l-4.024-2.9-2.618-2.237c-.606-.476-1.268-.6-1.902.104-.66.725-.854 1.47-.717 2.32.1.704.028 1.43-.276 2.216l-2.864-3.15c-.882-.808-2.012-1.47-3.114-2.113-.854-.497-1.488-.145-1.736.56-.138.456-.1.953-.1 1.43v3.998l-1.4-.86-3.94-3.263C1.115 6.03.8 5.907.563 5.76v10.98zm8.6-1.74l-.44-.3V6.175l3.583 3.728c.248.3.22.9 0 1.243-.772 1.036-1.68 2-2.535 3.024-.22.27-.413.54-.606.83zM26.03 6.05l3.47 3.336c.468.476.7 1.015.1 1.595l-2.618 2.983c-.193.207-.524.33-.965.62V6.05zm171.252 16.012c-.44.228-.854.642-1.295.642-2.866.02-5.705.02-8.57-.124-1.902-.083-2.48-.704-2.48-2.175l.027-3.086c0-.6-.275-1.036-1.185-.973s-1.047.538-.964 1.118l.496 4.288c.193 1.4 1.323 2.32 3.197 2.36l9.838.04c.882-.02 1.737-.54 2.6-.828l.716-3.48c.056-.228.276-.6.44-.62l6.3-.27.028 3.604c.248 2.03 1.378 2.796 4.08 3.107.413.04.937.456 1.102.766a1.97 1.97 0 0 1 .055 1.43c-.1.3-.66.684-.992.684l-5.3-.394-3.252.042-10.28-.25-7.634-.456c-.22-.02-.496-.062-.7.02-.386.187-.716.435-1.075.642.276.228.496.62.827.684.827.186 1.7.27 2.563.3l9.95.435c.083.373.165.642.165.9-.1 2.88-.137 2.6-3.17 2.07-1.35-.25-2.8-.228-4.216-.3l-4.382-.104c-.47.02-.882.414-1.35.62.386.3.744.766 1.158.808l5.76.33a149.94 149.94 0 0 1 5.263.394c.22.02.552.248.607.435.165.414.303.87.303 1.305 0 1.5-.413 1.595-2.398 1.5l-8.8-.124c-.358 0-.717.476-1.075.725.33.228.66.62 1.02.642l7.523.207 3.4.207v4.018l-6.42-.33-6.036-.228c-.44 0-1.212.435-1.295.746-.165.663.634.663 1.323.684l11.465.663c.523.04 1.047.25 1.543.373 1.02.25 1.543-.083 1.543-.9l.083-10.522v-4.04l6.807.02 5.732.3c1.075.04 1.6.3 1.57 1.16-.027.58-.055 1.2.138 1.74.386 1.015 2.673 1.885 4.05 1.636l3.197-.62c.47-.145.8-.58 1.185-.9-.468-.187-.992-.54-1.433-.518-1.102.062-2.205.3-3.307.435s-1.736-.27-1.764-1.056l-.027-5.924 2.508.414c1.24.3 3.196-.476 3.307-1.5.138-1.43.1-2.88.165-4.33v-1.678l3.803.33c.303.04.7.518.717.808l.248 4.35-.138 10.13c-.028 1.346-.22 2.672-.358 4.018-3.17.58-6.3.373-9.453.103l-8.35-.87c-.937-.083-1.46-.33-1.515-1.036l-.193-2.755c-.028-.56-.138-1.16-1.047-1.036-.414.04-1.02.58-1.048.9-.027 1.14.083 2.258.276 3.397.193 1.18 1.02 1.76 2.563 1.988.413.062.827.04 1.24.104.965.145 2.646.248 2.728.518.276 1.16.056 2.382-.055 3.563 0 .124-.606.27-.9.3-1.792 0-3.5.6-5.347.207-.606-.124-1.433.186-2.122.373-.248.083-.523.435-.468.62.055.207.44.497.716.518l3.555.124 4.906-.25c1.736-.062 2.04-.33 1.93-1.636-.083-1.264-.027-2.527-.027-3.687.33-.124.385-.187.468-.187 4.906.3 4.272-.04 4.272 3.48 0 .766.248 1.553.496 2.3.055.186.634.435.9.414.248-.04.58-.414.58-.663l.028-4.95h5.98v4.847c0 .56.33 1.056 1.13.83.413-.124.854-.704.882-1.077l.055-5.013.193-7.125c.083-3.48.22-6.96.138-10.44-.083-4.412-.304-8.824-.58-13.235-.1-1.533-.276-1.533-2.37-1.616-.55-.02-1.103-.124-1.626-.145-2.48-.104-3.032.166-3.307 2.36-.193 1.47.027 2.962.027 4.433 0 .62.303 1.077 1.158 1.015.827-.062.992-.518.964-1.14-.055-1.533 0-3.086.166-4.598.027-.207.937-.518 1.46-.518.58-.02 1.406-.062 1.46.746.138 2.34.33 4.68.524 7 .055.766-.248.994-1.35.9-2.508-.228-5.016-.352-7.524-.456-2.066-.083-2.976-.663-2.783-2.3.22-1.947.028-3.935-.083-5.882-.027-.3-.55-.6-.826-.9-.33.3-.965.6-.993.9-.1 2.403-.137 4.826-.1 7.23.028.953 1.13 1.76 2.398 1.968 1.24.207 2.508.373 3.748.62.303.062.7.393.7.6.055 1.76.027 3.542.027 5.427l-4.933-.6c-.33-.04-.634-.083-.964-.083-3.335 0-3.638-.953-3.666-3.23l-.165-10.626c0-.414-.138-.83-.083-1.243.193-1.574.055-1.864-1.956-2.113-1.7-.228-3.638-.58-5.07.497-.58.435-.965 1.16-1.02 1.78-.165 1.47-.083 2.962-.1 4.433 0 .62.303 1.036 1.212.953s.772-.58.772-1.098c-.028-1.326 0-2.672.055-3.998.055-1.056.8-1.47 2.453-1.346.496.04.992.124 1.846.228l-.027 8.472c0 .228-.606.642-.9.642-3.03-.062-6.035-.166-9.067-.352-1.763-.104-2.8-.766-2.838-1.595-.028-.85.055-1.72.082-2.568.028-1.16 0-2.34.1-3.5.082-.746.385-1.47.55-2.216.1-.56.22-1.18-.854-1.263-.937-.083-1.103.414-1.158.994-.193 1.5-.44 2.962-.66 4.474-1.296.083-2.7.207-4.107.228-1.102.02-1.736-.953-1.433-2.05l.827-3.003c.22-.83-.606-.953-1.378-1.118l-.827.62c-.055.414-.1.808-.138 1.222l-.303 4.557 1.473 1.1 4.658-.02c.88-.02 1.185.228 1.185.9 0 .953-.056 1.968.358 2.838.7 1.388 2.398 1.843 4.272 1.988.55.04 1.543.3 1.543.456.027.994-.165 1.947-.276 2.9zM118.215 7.15l7.358.476 14.772.808c1.047.062 2.122 0 3.17-.02l11.106-.166c.882 0 1.764.25 2.646.33.772.062 1.6.04 1.543-.766-.055-.704-.8-.704-1.515-.704-.607 0-1.24-.186-1.847-.207l-10.472-.3c-3.335-.04-6.67.062-10.032.04-1.047 0-2.067-.25-3.114-.33l-10.252-.62c-1.378-.062-2.8.166-4.2.33-1.047.124-1.323.725-1.378 1.45-.083 1.305-.248 2.6-.33 3.915l-.58 11.35c-.055 2.65.248 5.302.33 7.933.055 1.76-.083 3.5-.055 5.26.028 2.34.1 4.68.193 7.022.027.684.193 1.367.22 2.05.1 2.092 1.737 3.355 4.465 3.46l15.626.538c3.114.062 6.23-.145 9.315-.25l9.7-.3c1.213-.062 2.536-.103 3.583-.497.77-.3 1.598-1.12 1.626-1.74.165-2.465.055-4.95.027-7.436 0-.3-.1-.62-.1-.932l-.44-9.797-.22-6.1c-.083-1.802-.276-3.604-.414-5.385-.1-1.595-1.378-2.63-3.114-3.273-.964-.352-2.177-.393-3.307-.414-4.16-.02-8.323.062-12.512.04-1.516 0-3.03-.083-4.52-.3-2.48-.393-4.767.04-7.055.684-1.212.352-1.82 1.036-2.012 1.906-.193.9-.303 1.843-.303 2.775.083 2.983.33 5.945.33 8.927 0 3.75-.138 7.477-.248 11.226 0 .518-.083 1.036-.138 1.698 1.24.746 2.7 1.2 4.658.932 1.874-.25 3.83-.104 5.732-.166l10.362-.3c1.103-.04 2.15-.808 2.15-1.595l.027-7.8c-.055-2.36-.413-4.743-.358-7.104.028-1.346-.138-2.465-1.8-3.2-.414-.186-.937-.3-1.433-.352-1.57-.166-3.17-.352-4.74-.435-2.507-.145-3.665.642-3.775 2.6-.055.9.193 1.76.248 2.65l.303 6.7c.028.684.717.932 1.268.725.523-.186 1.13-.766 1.102-1.18-.055-1.636-.33-3.252-.496-4.868l-.276-3.604c-.1-1.264.248-1.553 1.902-1.43 1.268.083 2.536.207 3.803.33 1.213.124 1.7.725 1.736 1.574.056 1.284.056 2.6.083 3.873l.33 10.7c.027 1.056-1.075.87-1.82.9-2.6.124-5.18.186-7.772.228h-8.846v-5.24l-.055-6.07c0-.207-.083-.414-.083-.62l.027-11.35c0-.3.36-.787.7-.9 1.82-.538 3.583-1.036 5.678-.746 2.094.3 4.3.25 6.45.3l12.76.228c2.067.062 2.867 1.18 2.536 2.713-.193.85.22 1.76.248 2.63l.44 9.05c.027.373.1.746.1 1.14.083 1.284-.083 2.63.303 3.873.717 2.403.276 4.785.33 7.187a43.6 43.6 0 0 1-.165 4.64c-.028.25-.58.663-.9.684l-14.827.663a170.36 170.36 0 0 1-7.275.104 317.44 317.44 0 0 1-7.689-.104l-6.918-.25c-1.433-.062-2.177-.62-2.287-1.678-.855-8.4-.662-16.777-.55-25.166.055-3.355.496-6.7.744-10.066.248-.87.193-1.76.193-2.88z"/><path d="M85.254 14.77c.606 1.553 1.047 3.17 1.874 4.66 1.02 1.802 3.472 2.423 5.622 3.252.55.207 1.047.56 1.626.62 1.185.145 2.398.27 3.6.207 3.114-.145 5.76-1.264 7.937-2.838 2.122-1.574 3.86-3.438 4.08-5.8.083-.766-.1-1.595-.386-2.34-1.212-3.563-3.638-6.4-8.378-7.85-4.96-1.512-10.17-.145-13.035 3.2-2.04 2.382-2.453 4.764-2.6 6.815a.96.96 0 0 0-.358.062zm20.063-4.122c-1.93 3.75-4.547 6.98-8.13 10.046L89.553 10.65h15.764zM84.04 39.544c.083 2.092.44 3.915 2.012 5.53 1.323 1.367 3.252 1.926 5.154 2.568.193.062.524 0 .662.104 2.646 1.802 5.484.746 8.047.062 3.72-.974 6.256-3.2 7.772-5.862.7-1.222.634-2.858.303-4.246-.744-3.107-2.866-5.655-6.56-7.353-5.1-2.382-11.492-1.45-14.882 2.527-1.598 1.885-2.48 4.826-2.508 6.67zm15.847 6.504V31.673c3.28.6 6.173 4.225 6.504 7.8.248 2.672-3.556 5.613-6.504 6.566zm-8.57.166c-1.13-.497-2.067-.85-2.92-1.284-1.93-1.015-2.122-2.693-2.37-4.225-.413-2.568.58-4.992 2.343-7.167.744-.9 1.626-1.926 3.445-2.196l-.496 14.872zm197.435-37.2l.027 10.48c0 .828.33 1.512 1.323 2.113 1.433.9 2.646 1.968 3.914 3.003l6.283 5.26 5.65 4.888 5.594 5.84a24.64 24.64 0 0 0 2.646 2.34c.33.27.992.394 1.516.414l11.106.228c.8.02 1.626.166 2.425.352 1.516.352 2.15.104 2.26-1.098.083-.953.028-1.905 0-2.858-.055-1.698-.303-3.418-.138-5.116.166-1.47-.7-2.465-1.846-3.5-1.35-1.243-2.453-2.63-3.803-3.873l-9.48-8.637c-1.295-1.14-2.92-2.092-4.3-3.2-.744-.58-1.295-1.326-2.04-1.926l-7.193-6.1c-1.544-1.574-3.5-1.367-5.457-1.5-1.598-.104-3.197 0-4.795.02-3.252.04-3.804.476-3.693 2.858zm6.53-1.263v.124c.55-.02 1.103-.124 1.626-.062 1.213.145 2.8.104 3.555.642 2.977 2.258 5.678 4.702 8.46 7.084 1.268 1.077 2.48 2.196 3.803 3.252 1.57 1.222 3.363 2.32 4.823 3.604 1.7 1.512 3.142 3.2 4.74 4.785 1.57 1.553 3.252 3.066 4.74 4.66 1.074 1.12 2.15 2.237 1.956 3.832-.193 1.802-.027 3.604-.027 5.427 0 .684-.36 1.015-1.323.994l-11.63-.352c-.358-.02-.772-.3-1.02-.56-3.114-3.128-5.815-6.483-9.508-9.3-2.04-1.553-3.775-3.335-5.705-4.95-2.315-1.906-4.712-3.75-7.055-5.634-.606-.497-1.405-.994-1.598-1.595-.33-1.036-.358-2.154-.386-3.252-.028-2.672-.028-5.323.055-7.995 0-.228.634-.62.992-.663 1.213-.104 2.37-.04 3.5-.04zM50.005 26.97c-2.508-.207-4.74.3-6.752 1.326-.717.352-1.378.828-1.847 1.367-1.02 1.14-2.453 2.092-2.8 3.563-.413 1.823-1.13 3.604-.854 5.5.33 2.36 1.516 4.4 4.162 5.78.854.435 1.902.663 2.84 1.015.606.207 1.13.54 1.764.684.606.166 1.268.27 1.902.228 2.6-.124 5.154-.373 7.358-1.574 3.197-1.76 5.677-3.873 6.283-6.94.055-.228-.027-.476-.055-.725-.358-2.382-1.13-4.62-3.197-6.545a13.63 13.63 0 0 0-8.791-3.666zm-.965 3.273l-2.287-1.698c2.122-.518 2.783-.248 3.17 1.015l2.425 2.32 5.925 7c1.047 1.243 1.075 1.222-.413 2.32l-4.878-5.5-2.508-3.2-1.433-2.258zm-3.28-1.367l5.512 6.42 5.346 6.235c.44.497.55.85-.22 1.16-.7.27-1.323 1.036-2.122.124l-6.035-6.752-3.968-4.992c-.276-.352-.496-.725-.772-1.12l2.26-1.077zm-3.224 2.196c.138.124.33.228.44.352l4.657 5.675 5.705 6.193c.193.207.33.538.248.746-.33.6-2.6.663-3.06.124l-8.68-10.5c-.9-1.077-.772-1.698.7-2.6zm8.543-2.32c5.07.248 10.06 6.007 8.488 9.714l-8.488-9.714zm-10.665 5.655l.44-.124L49.48 44.91c-1.433.3-3.032-.414-3.913-1.512-1.57-1.988-2.95-4.08-4.878-5.84-1.323-1.222-.744-2.092-.275-3.148zm4.134 9.238c-3.142-.746-5.1-2.962-4.658-5.26l4.658 5.26zm2.894-19.47c3.693-.25 6.807-.684 9.177-2.506 1.295-.994 2.6-2.05 3.638-3.2 1.82-1.968 1.516-4.143.717-6.317-1.102-3.003-3.417-5.282-7.1-6.7C48.958 3.586 43.198 4.622 40 8.205c-1.846 2.092-2.618 4.412-2.728 6.794-.1 2.693.744 5.282 3.996 6.96.827.414 1.8.663 2.7.994l3.473 1.222zm8.02-16.467c.58.56 1.185 1.118 1.7 1.72 1.488 1.657 2.315 3.52 2.37 5.5.027.9-.083 1.968-.7 2.693-1.736 2.07-4.024 3.8-7.193 4.578-1.35.33-2.894.476-4.272.33-1.268-.145-2.453-.787-3.665-1.243-.717-.27-1.46-.518-2.04-.9-2.067-1.43-2.535-3.376-2.48-5.344.055-1.305.66-2.6 1.13-3.894.66-1.802 2.04-3.23 4.272-4.267l1.405 4.412 1.8 5.054c.22.56.58 1.5 1.047 1.554 1.24.186 1.13-.83 1.488-1.408L55.46 7.7zm223.67.042v5.758c0 .746-.1 1.533.193 2.216 1.02 2.278.58 4.62.772 6.918.193 2.382-.055 4.785 0 7.167l.33 5.033c.055 1.43-.083 2.858-.1 4.288l-.166 6.193c-.055 1.243.44 2.03 1.6 2.237 1.8.33 3.086-.663 2.866-2.196-.1-.85-.248-1.698-.22-2.548l.22-7.167.027-4.578-.44-6.607-.082-4.9-.55-5.84c-.1-1.802-.083-3.625-.028-5.427.028-1.45-.55-2.133-2.122-2.154-1.433-.02-1.957.414-1.957 1.595-.082.02-.22.02-.33.02zM174.766 5.18L172.8 6.983l-4.217 3.2c-.716.58-1.075 1.367-.413 2.07.606.684 1.378 1.305 2.204 1.823l4.493 2.6c.1.062-.1.663-.36.828l-5.594 3.2c-.607.352-.827 1.968-.248 2.423.744.58 1.598 1.098 2.453 1.616l5.043 2.838-5.76 3.625c-1.35.932-2.646 1.947-3.776 3.045-.716.704-.33 1.5.552 2.092l7.22 4.9c.9.6.992 1.14.055 1.698l-3.913 2.216c-.717.394-1.103 1.2-.55 1.72.578.56 1.212.725 2.122.248 1.93-1.036 3.94-1.947 5.3-3.5.854-.974.717-2-.138-3.003-1.9-2.196-5.043-3.314-7.358-5.137a6.05 6.05 0 0 0-.413-.33l3.582-2.817c1.296-.9 2.756-1.7 4.08-2.568 2.067-1.367 1.874-2.983-.276-4.246l-5.3-3.438 4.906-3.045c.77-.518 1.653-1.16 1.956-1.864.386-.85-.386-1.616-1.433-2.092l-2.425-1.118c-.138-.083-.138-.33-.193-.497l-3.472-1.802 3.885-3.252c.7-.54 1.57-.932 2.37-1.408.027-.062.055-.124.055-.207.082-.54.468-1.2.165-1.553-.524-.684-1.46-.54-2.26-.062-.082.02-.248-.02-.386 0zM248 7.915v5.758c0 .704.028 1.45.276 2.113.9 2.568.606 5.157.58 7.746-.028 1.574.22 3.17.303 4.743l.193 6.65c.027 1.388-.083 2.796-.138 4.184l-.138 6.172c-.055 1.284.414 1.988 1.6 2.237 1.736.373 3.004-.642 2.8-2.216-.055-.497-.055-.994-.055-1.47l.1-8.244.027-3.956-.413-5.55-.193-5.5-.496-7.187-.027-5.655c0-1.18-.937-1.78-2.48-1.636-1.405.145-1.764.83-1.543 1.802-.138.02-.276.02-.414.02zM245.098 44.4c.275-3.355.193-6.7-.36-10.066-.33-2-.716-4.1-.082-6.214.413-1.367 0-2.858 0-4.288l.055-6.235c0-.373-.22-.746-.193-1.118.028-1.47.138-2.94.193-4.4.055-1.512.22-3.024.055-4.515-.055-.456-.9-1.118-1.516-1.222-.7-.104-1.846.186-2.204.6-.47.56-.414 1.388-.552 2.113-.027.166.138.352.1.497-.414 1.988-.248 3.977-.166 5.965.1 2.6-.165 5.22-.165 7.83 0 1.885.22 3.77.248 5.655.027.9-.303 1.823-.22 2.713.138 1.5.552 2.983.7 4.474.1.974-.055 1.947-.082 2.92 0 .435.1.87.1 1.305l-.028 2.05c-.055 1.015-.22 2.05-.192 3.066.027.787 1.102 1.45 2.15 1.43 1.158-.02 2.012-.62 2.122-1.574.083-.3.028-.642.028-.994zm31.06.27c.33-3.563.22-6.814-.303-10.108-.33-2.03-.937-4.184-.055-6.297.165-.393-.166-.87-.166-1.305-.082-2.65-.303-5.323-.1-7.974a19.07 19.07 0 0 0-.082-3.542c-.138-1.077.33-2.175.385-3.273.083-1.574.166-3.148-.027-4.702-.055-.414-1.02-1.036-1.654-1.098s-1.736.27-2.04.684c-.44.6-.33 1.408-.44 2.133-.028.166.1.352.083.497-.634 3.045-.193 6.1-.22 9.134 0 2.548-.138 5.095-.165 7.643 0 .787.138 1.574.22 2.36.028.27.055.538.055.808 0 1.118-.082 2.216-.027 3.335.055 1.408.22 2.817.33 4.246.082 1.14.22 2.3.275 3.438.028.808-.055 1.636-.083 2.444-.027.85-.137 1.698-.1 2.548.028.766 1.02 1.388 2.04 1.388 1.185-.02 2.122-.787 2.15-1.802 0-.27-.055-.54-.055-.56zm-14.66-.56l-.028-8.782c-.1-2.05-.717-4.1-.882-6.152-.165-1.947 0-3.894-.027-5.84 0-.393-.138-.787-.193-1.18-.193-1.346-.552-2.693-.58-4.04l.138-8.078a12.89 12.89 0 0 0-.248-2.506c-.166-.808-.937-1.16-1.957-1.16-1.047 0-1.6.456-1.764 1.2-.275 1.222-.66 2.444-.744 3.666-.083.87.303 1.76.358 2.65l.717 9.03.413 9.176.58 6.027c.055 1.947-.22 3.873-.358 5.82-.028.497-.248 1.098.055 1.5.358.518 1.047 1.056 1.736 1.222.937.228 1.82-.186 2.177-.9.248-.497.276-1.056.414-1.595.055-.02.1-.04.193-.04zm-29.048-3.872l.386 4.93c.138.974 1.157 1.346 2.315 1.2 1.157-.124 1.736-.663 1.708-1.678-.055-1.864.138-3.728.166-5.613.027-1.988.275-4.018-.028-5.986-.496-3.2.303-6.4-.165-9.6-.193-1.222.33-2.506.44-3.77.083-.828.083-1.678.055-2.506l-.22-2.94-.276-5.5c-.055-.56-.358-1.284-.882-1.595-.468-.27-1.488-.228-2.122-.04-.44.124-.854.725-.882 1.118-.055 1.015.193 2.05.193 3.065L233 16.16l-.055 6.297-.358 4.785c-.028 1.263.165 2.527.165 3.8l-.138 4.184v5.012c-.1.02-.137.02-.165.02zm35.36 3.292l.303-4.474c.027-1.47-.1-2.94-.193-4.412l-.22-2.94c0-.538.22-1.077.248-1.616l.028-5.427.386-4.888.082-2.817-.027-3.956c-.028-.704-.193-1.43-.276-2.133l-.165-2.36c-.083-1.015-.992-1.636-2.232-1.574-1.185.062-1.737.56-1.764 1.595L263.84 21.4l.165 4.184-.192 4.97-.028 3.376v9.507c0 .62.138 1.222.303 1.823.276.953 1.268 1.14 2.343 1.036 1.102-.104 1.68-.62 1.515-1.533-.082-.394 0-.828 0-1.222-.055.02-.082 0-.137 0zM61.9 25.956c.165 2.196.358 3.915 1.68 5.5 1.323 1.595 3.417 2.36 5.567 2.983 1.185.33 2.04 1.16 3.583 1.015 3.224-.3 6.146-.808 8.68-2.568 2.343-1.616 4.3-3.293 4.713-5.717a6.23 6.23 0 0 0-.138-2.568c-1.102-4.018-3.97-7.063-9.287-8.4-2.756-.683-5.567-.58-8.323.642-2.673 1.18-4.217 2.962-5.346 4.9-.8 1.43-.827 3.086-1.13 4.205zm10.473-8.74c2.92.062 5.374.62 7.055 1.657 3.114 1.947 4.768 4.495 4.823 7.54.028.87-.193 1.864-.8 2.568-1.268 1.47-2.784 2.838-4.933 3.708-2.453.974-4.85 2.113-7.606.538-.138-.062-.358-.02-.524-.083-1.323-.414-2.8-.684-3.913-1.326-2.177-1.284-2.728-3.355-2.618-5.22.138-2.65.937-5.323 3.6-7.374 1.433-1.12 3.197-1.885 4.906-2zm258.37 9.216l-.854-.87L324.276 20l-6.752-6.442-6.1-4.93c-.606-.497-1.157-1.077-1.874-1.45-.358-.207-1.047-.062-1.598-.083.027.373-.083.808.165 1.098.468.56 1.102 1.056 1.68 1.553l6.642 5.634c3.445 3.107 6.78 6.276 10.114 9.445.717.683 1.295 1.47 2.04 2.133.25.207.9.248 1.35.166.248-.062.468-.414.8-.683zM290.515 25.2c-.385.27-.937.456-.992.704-.055.352.083.85.386 1.12l5.2 4.515 7.138 6.628 4.74 3.998c.606.518 1.02 1.16 1.653 1.636.304.228.9.25 1.378.352.138-.373.552-.9.36-1.118-.992-1.222-2.04-2.444-3.225-3.563l-6.752-6.07-7.7-6.545c-.44-.373-.8-.828-1.24-1.2-.22-.166-.58-.27-.965-.456z"/><path d="M315.815 7.17c-1.24-.02-1.874.787-1.213 1.45.855.87 1.93 1.636 2.894 2.465l4.768 4.246 4.08 4.33 3.224 3.003c.276.228 1.13.062 1.7.062 0-.394.22-.932-.028-1.18-2.48-2.63-4.96-5.26-7.606-7.788-2.205-2.113-4.658-4.122-7-6.152-.248-.228-.662-.352-.827-.435zm-12.043 35.232c-.138-.166-.36-.456-.634-.725l-6.284-5.717-4.823-4.847c-.468-.456-.992-.9-1.543-1.305-.606-.456-1.35-.518-1.93 0-.607.54-.083.83.44 1.264 1.323 1.077 2.48 2.278 3.665 3.438l7.193 6.94c.662.62 1.406 1.243 2.288 1.698.716.373 1.57 0 1.626-.746zM321.74 7.397c-.496.25-1.02.352-1.102.56-.1.3-.083.787.165 1.036l7.9 7.954c.578.58 1.24.828 2.094.373.772-.414.47-.9.028-1.346l-7.634-7.52c-.414-.373-.937-.684-1.46-1.056zm-24.555 34.55c-.165-.352-.22-.62-.386-.787l-2.976-2.88-2.343-2.113c-.58-.497-1.157-1.036-1.902-1.388-.358-.166-1.102-.083-1.515.103-.193.083-.138.787.1 1.015l3.858 3.355 2.7 2.6c.386.33.992.58 1.543.663.248.04.634-.394.9-.58zm34.255-28.583c.496-.27.965-.394 1.158-.663.137-.186-.028-.6-.248-.808l-3.75-3.75c-.578-.58-1.322-.85-2.094-.373-.744.435-.303.9.248 1.367 1.268 1.098 2.37 2.3 3.583 3.438.275.3.7.497 1.102.787zm-42.8 25.787c-1.185-.04-1.846.704-1.322 1.346.744.9 1.515 1.823 2.452 2.6.33.27 1.185.166 1.792.228 0-.414.193-.9-.028-1.222-.634-.9-1.433-1.72-2.205-2.568-.192-.228-.55-.33-.7-.394zm21.856-14.872c-1.7 0-3.307.083-4.465 1.305-.77.828-.633 1.595-.1 2.278 1.626 2.113 6.284 2.07 8.047.33.745-.746.882-1.595.1-2.3-.8-.704-1.35-1.78-3.032-1.636-.165.02-.358.02-.55.02zm-.854 1.47c.578.062 1.074 0 1.295.145.496.33.937.725 1.185 1.16.083.145-.496.725-.717.725-1.157-.104-2.315-.3-3.444-.54-.1-.02-.22-.704-.028-.808.55-.33 1.24-.518 1.7-.684zM74.285 19.866c-1.598.435-3.417.62-4.713 1.326-3.252 1.802-3.858 3.5-2.535 6.442.8 1.802 2.563 3.107 4.74 3.956.772.3 2.067.145 2.976-.124 3.886-1.16 6.42-4.287 5.512-7.477-.606-2.133-2.894-3.998-5.843-3.873-.055-.062-.1-.145-.138-.25zm5.016 5.696l-1.075 2.278c-.992 1.636-2.7 2.6-5.043 2.983-.33.04-.8.02-1.02-.124-1.185-.808-2.563-1.553-3.4-2.548-1.24-1.5-1.378-3.23-.33-4.826 1.102-1.678 4.906-2.693 7.276-2.092 2.094.518 3.4 2.154 3.583 4.33zM669.376 44.08l5.595-4.474c.138 0 .275.02.413.02v3.086c.028.58.028 1.18.248 1.72.138.33.717.746 1.103.746.385.02.9-.373 1.185-.684l5.126-5.634.33 1.926c.083.87 0 1.74.138 2.6.083.456.496 1.222.772 1.243.744 0 1.736-.145 2.232-.538l5.154-4.37c.165-.145.44-.228 1.02-.497v4.06c0 .352.083.766.304 1.056s.66.62 1.02.642c.386.02.965-.248 1.185-.518l4.465-5.013c1.268-1.264 1.24-2.32 0-3.5l-1.902-1.968-3.307-2.713 3.528-3.397c1.02-1.14 2.012-2.32 2.618-3.604.248-.518-.524-1.388-1.02-1.988-.744-.932-1.598-1.823-2.535-2.63-.662-.6-1.488-1.12-2.37-1.553-1.35-.663-2.122-.3-2.15.932-.027.518.1 1.036.1 1.553v3.066l-.44.145-3.775-2.858-2.04-1.678c-.523-.352-1.212-.58-1.846-.85-.44.683-1.103 1.326-1.24 2.05-.193.932.055 1.906-.193 2.983l-2.067-2.133c-1.213-1.056-2.398-2.133-3.803-3.024-1.075-.663-2.012-.207-2.04.85-.027.85.138 1.72.138 2.568 0 .746-.138 1.5-.248 2.548l-5.705-4.598v2.278l3.445 2.485c.276.228.276.9.028 1.14-1.075.9-2.315 1.74-3.473 2.6v2.278l5.815-4.557.496 5.82c-.027 1.926-.413 3.873-.66 6.007l-1.378-.953-4.272-3.418v10.77zm8.048-12.676l2.755-2.88 2.784-3.2c.386 1.553.44 3.066.606 4.578.138 1.2 1.24 1.533 2.536.808.303-.166.523-.393.77-.6l3.473-2.92 1.8-1.636.386.228c.193 1.864.58 3.75.55 5.613s-.44 3.728-.744 5.84c-.606-.373-1.02-.56-1.323-.828l-5.208-4.1c-.276-.207-1.323-.25-1.5-.083-.66.663-1.322 1.346-1.02 2.34.22.746.055 1.574.055 2.486l-5.925-5.655zm13.283-6.524l-4.74 3.77-.524-.124V20.76l5.264 4.122zM677.7 42.216l-.358-.124v-8.43l3.28 3.23c.33.352.827.932.634 1.16-1.075 1.43-2.342 2.796-3.555 4.163zm17.252-.166l-.275-.145V33.6l3.445 3.376c.248.248.413.725.275.932l-3.445 4.143zm-25.576-25.3l5.843-4.495c.138.02.303.02.44.04v3.956c0 .3 0 .642.193.85.303.3.77.704 1.185.704.386 0 .882-.394 1.185-.704l5.18-5.717.22 2.734c.056.684.028 1.388.166 2.07.248 1.305 1.295 1.595 2.618.684 1.102-.766 2.094-1.636 3.114-2.465l2.866-2.403c.138.02.276.062.386.083l.193 3.832c.028.456.138.974.47 1.326.468.497 1.24.538 1.708-.02l5.705-6.587c.193-.207.138-.704-.083-.9l-5.098-4.992c-.47-.414-1.378-.518-2.095-.766-.275.58-.716 1.16-.77 1.74-.1 1.388-.028 2.755-.028 4.433l-4.024-2.9-2.618-2.237c-.606-.476-1.267-.6-1.9.104-.662.725-.855 1.47-.717 2.32.1.704.028 1.43-.275 2.216l-2.867-3.148c-.88-.808-2-1.47-3.114-2.113-.854-.497-1.488-.145-1.736.56-.138.456-.1.953-.1 1.43v3.998l-1.378-.85-3.94-3.273c-.166-.207-.47-.33-.717-.476V16.74zm8.6-1.74c-.138-.103-.303-.186-.44-.3V6.175l3.583 3.728c.248.3.22.9 0 1.243-.772 1.036-1.682 2-2.536 3.024-.22.27-.413.54-.606.83zm16.864-8.95l3.473 3.335c.468.476.7 1.015.1 1.595l-2.618 2.983c-.193.207-.524.33-.965.62V6.05zm171.255 16.012c-.44.228-.855.642-1.296.642-2.866.02-5.704.02-8.57-.124-1.9-.083-2.48-.704-2.48-2.175l.028-3.086c0-.6-.276-1.036-1.185-.973s-1.048.538-.965 1.118l.496 4.288c.193 1.4 1.323 2.32 3.197 2.36l9.84.04c.882-.02 1.736-.54 2.6-.828l.717-3.48c.055-.228.275-.6.44-.62l6.3-.27c0 1.346-.1 2.485.027 3.604.248 2.03 1.378 2.796 4.08 3.107.414.04.937.456 1.103.766.192.435.22.973.055 1.43-.1.3-.662.684-.992.684l-5.292-.394-3.252.042-10.28-.25-7.633-.456c-.22-.02-.497-.062-.7.02-.386.187-.717.435-1.075.642.275.228.496.62.827.684.826.186 1.708.27 2.563.3l9.948.435c.083.373.166.642.166.9-.1 2.88-.138 2.6-3.17 2.07-1.35-.25-2.812-.228-4.217-.3l-4.382-.104c-.47.02-.882.414-1.35.62.385.3.744.766 1.157.808l5.76.33 5.264.394c.22.02.55.248.606.435.165.414.303.87.303 1.305 0 1.5-.413 1.595-2.397 1.5l-8.792-.124c-.358 0-.716.476-1.075.725.33.228.662.62 1.02.642l7.524.207 3.4.207v4.018l-6.422-.33-6.035-.228c-.44 0-1.213.435-1.296.746-.165.663.634.663 1.323.684l11.465.663c.524.04 1.047.25 1.543.373 1.02.25 1.544-.083 1.544-.9l.082-10.522v-4.04l6.807.02 5.733.3c1.075.04 1.598.3 1.57 1.16-.028.58-.055 1.2.137 1.74.386 1.015 2.674 1.885 4.052 1.636l3.197-.62c.468-.145.8-.58 1.185-.9-.47-.187-.993-.54-1.433-.518-1.103.062-2.205.3-3.308.435s-1.736-.27-1.763-1.056l-.028-5.924 2.508.414c1.24.3 3.197-.476 3.307-1.5.138-1.43.1-2.88.165-4.33v-1.678l3.804.33c.303.04.7.518.716.808l.248 4.35-.138 10.13c-.027 1.346-.22 2.672-.358 4.018-3.17.58-6.3.373-9.453.103l-8.35-.87c-.937-.083-1.46-.33-1.516-1.036l-.193-2.755c-.027-.56-.138-1.16-1.047-1.036-.414.04-1.02.58-1.047.9-.028 1.14.082 2.258.275 3.397.193 1.18 1.02 1.76 2.563 1.988.414.062.827.04 1.24.104.965.145 2.646.248 2.73.518.275 1.16.055 2.382-.055 3.563 0 .124-.607.27-.9.3-1.8 0-3.5.6-5.346.207-.607-.124-1.433.186-2.122.373-.248.083-.524.435-.47.62.055.207.44.497.717.518l3.555.124 4.905-.25c1.737-.062 2.04-.33 1.93-1.636-.083-1.264-.028-2.527-.028-3.687.33-.124.386-.187.468-.187 4.906.3 4.272-.04 4.272 3.48 0 .766.248 1.553.496 2.3.055.186.634.435.9.414.248-.04.578-.414.578-.663l.028-4.95h5.98v4.847c0 .56.33 1.056 1.13.83.414-.124.855-.704.882-1.077.1-1.657.028-3.335.055-5.013l.193-7.125c.083-3.48.22-6.96.138-10.44-.083-4.412-.303-8.824-.58-13.235-.1-1.533-.275-1.533-2.37-1.616-.55-.02-1.102-.124-1.626-.145-2.48-.104-3.03.166-3.307 2.36-.193 1.47.028 2.962.028 4.433 0 .62.303 1.077 1.157 1.015.827-.062.992-.518.965-1.14a32.03 32.03 0 0 1 .165-4.598c.028-.207.937-.518 1.46-.518.578-.02 1.405-.062 1.46.746.138 2.34.33 4.68.524 7 .055.766-.248.994-1.35.9-2.508-.228-5.016-.352-7.524-.456-2.067-.083-2.977-.663-2.784-2.3.22-1.947.028-3.935-.082-5.882-.028-.3-.55-.6-.827-.9-.33.3-.965.6-.992.9-.1 2.403-.138 4.826-.1 7.23.027.953 1.13 1.76 2.397 1.968 1.24.207 2.508.373 3.748.62.303.062.7.393.7.6.055 1.76.028 3.542.028 5.427l-4.933-.6c-.33-.04-.634-.083-.965-.083-3.335 0-3.638-.953-3.665-3.23l-.166-10.626c0-.414-.137-.83-.082-1.243.193-1.574.055-1.864-1.957-2.113-1.7-.228-3.638-.58-5.07.497-.58.435-.965 1.16-1.02 1.78-.165 1.47-.082 2.962-.1 4.433 0 .62.303 1.036 1.213.953s.77-.58.77-1.098c-.027-1.326 0-2.672.056-3.998.055-1.056.8-1.47 2.452-1.346.496.04.992.124 1.847.228l-.028 8.472c0 .228-.606.642-.9.642a221.45 221.45 0 0 1-9.067-.352c-1.764-.104-2.8-.766-2.84-1.595-.027-.85.055-1.72.083-2.568.027-1.16 0-2.34.1-3.5.083-.746.386-1.47.55-2.216.1-.56.22-1.18-.854-1.263-.937-.083-1.102.414-1.158.994-.193 1.5-.44 2.962-.66 4.474-1.295.083-2.7.207-4.106.228-1.103.02-1.737-.953-1.433-2.05l.826-3.003c.22-.83-.606-.953-1.378-1.118l-.826.62c-.056.414-.1.808-.138 1.222l-.303 4.557 1.5 1.1 4.658-.02c.882-.02 1.185.228 1.185.9 0 .953-.055 1.968.358 2.838.7 1.388 2.398 1.843 4.272 1.988.55.04 1.543.3 1.543.456.028.994-.165 1.947-.275 2.9zM787.027 7.15l7.358.476 14.772.808c1.047.062 2.122 0 3.17-.02l11.107-.166c.882 0 1.764.25 2.646.33.77.062 1.598.04 1.543-.766-.055-.704-.8-.704-1.516-.704-.606 0-1.24-.186-1.846-.207l-10.473-.3c-3.335-.04-6.67.062-10.03.04-1.048 0-2.067-.25-3.115-.33l-10.252-.62c-1.378-.062-2.8.166-4.2.33-1.047.124-1.323.725-1.378 1.45-.082 1.305-.248 2.6-.33 3.915l-.58 11.35c-.055 2.65.248 5.302.33 7.933.055 1.76-.083 3.5-.056 5.26.028 2.34.1 4.68.193 7.022.028.684.193 1.367.22 2.05.1 2.092 1.736 3.355 4.464 3.46l15.627.538c3.114.062 6.228-.145 9.315-.25l9.7-.3c1.213-.062 2.536-.103 3.583-.497.772-.3 1.6-1.12 1.626-1.74.166-2.465.055-4.95.028-7.436 0-.3-.1-.62-.1-.932l-.44-9.797-.22-6.1c-.083-1.802-.276-3.604-.413-5.385-.1-1.595-1.378-2.63-3.115-3.273-.964-.352-2.177-.393-3.307-.414-4.16-.02-8.323.062-12.512.04-1.515 0-3.03-.083-4.52-.3-2.48-.393-4.768.04-7.055.684-1.213.352-1.82 1.036-2.012 1.906-.193.9-.303 1.843-.303 2.775.082 2.983.33 5.945.33 8.927 0 3.75-.138 7.477-.248 11.226 0 .518-.082 1.036-.138 1.698 1.24.746 2.7 1.2 4.658.932 1.874-.25 3.83-.104 5.732-.166l10.363-.3c1.102-.04 2.15-.808 2.15-1.595l.028-7.8c-.055-2.36-.414-4.743-.36-7.104.028-1.346-.137-2.465-1.8-3.2-.413-.186-.937-.3-1.433-.352-1.57-.166-3.17-.352-4.74-.435-2.508-.145-3.666.642-3.776 2.6-.055.9.193 1.76.248 2.65l.303 6.7c.028.684.717.932 1.268.725.524-.186 1.13-.766 1.103-1.18-.056-1.636-.33-3.252-.497-4.868l-.275-3.604c-.1-1.264.248-1.553 1.9-1.43 1.268.083 2.536.207 3.804.33 1.212.124 1.708.725 1.736 1.574.055 1.284.055 2.6.083 3.873l.33 10.7c.028 1.056-1.075.87-1.82.9-2.6.124-5.18.186-7.77.228h-8.847v-5.24l-.055-6.07c0-.207-.083-.414-.083-.62l.028-11.35c0-.3.358-.787.7-.9 1.82-.538 3.583-1.036 5.677-.746 2.095.3 4.3.25 6.45.3l12.76.228c2.067.062 2.866 1.18 2.535 2.713-.193.85.22 1.76.248 2.63l.44 9.05c.028.373.1.746.1 1.14.082 1.284-.083 2.63.303 3.873.716 2.403.275 4.785.33 7.187a43.34 43.34 0 0 1-.165 4.64c-.027.25-.58.663-.9.684l-14.827.663a170.43 170.43 0 0 1-7.276.104 317.44 317.44 0 0 1-7.689-.104l-6.917-.25c-1.433-.062-2.178-.62-2.288-1.678-.854-8.4-.66-16.777-.55-25.166.055-3.355.496-6.7.744-10.066.248-.87.193-1.76.193-2.88zm-32.96 7.62c.606 1.553 1.047 3.17 1.874 4.66 1.02 1.802 3.473 2.423 5.622 3.252.55.207 1.047.56 1.626.62 1.185.145 2.398.27 3.6.207 3.115-.145 5.76-1.264 7.938-2.838 2.122-1.574 3.858-3.438 4.078-5.8.083-.766-.1-1.595-.386-2.34-1.212-3.563-3.637-6.4-8.378-7.85-4.96-1.512-10.17-.145-13.035 3.2-2.04 2.382-2.453 4.764-2.6 6.815-.137 0-.248.02-.358.062zm20.063-4.122c-1.93 3.75-4.547 6.98-8.13 10.046l-7.634-10.046h15.764zm-21.276 28.895c.083 2.092.44 3.915 2.012 5.53 1.323 1.367 3.252 1.926 5.154 2.568.193.062.523 0 .66.104 2.646 1.802 5.485.746 8.048.062 3.72-.974 6.256-3.2 7.77-5.862.7-1.222.634-2.858.303-4.246-.744-3.107-2.866-5.655-6.56-7.353-5.098-2.382-11.492-1.45-14.882 2.527-1.598 1.885-2.48 4.826-2.508 6.67zm15.847 6.504V31.673c3.28.6 6.173 4.225 6.504 7.8.248 2.672-3.555 5.613-6.504 6.566zm-8.57.166c-1.13-.497-2.067-.85-2.92-1.284-1.93-1.015-2.122-2.693-2.37-4.225-.414-2.568.578-4.992 2.342-7.167.744-.9 1.626-1.926 3.445-2.196l-.496 14.872zm197.434-37.2l.028 10.48c0 .828.33 1.512 1.322 2.113 1.434.9 2.646 1.968 3.914 3.003l6.283 5.26 5.65 4.888 5.595 5.84c.8.83 1.708 1.616 2.645 2.34.33.27.992.394 1.516.414l11.106.228c.8.02 1.626.166 2.426.352 1.515.352 2.15.104 2.26-1.098.08-.953.03-1.905 0-2.858-.06-1.698-.3-3.418-.14-5.116.17-1.47-.688-2.465-1.846-3.5-1.35-1.243-2.452-2.63-3.803-3.873l-9.48-8.637c-1.296-1.14-2.922-2.092-4.3-3.2-.744-.58-1.295-1.326-2.04-1.926l-7.193-6.1c-1.543-1.574-3.5-1.367-5.457-1.5-1.598-.104-3.197 0-4.795.02-3.252.04-3.803.476-3.693 2.858zm6.532-1.263v.124c.55-.02 1.102-.124 1.626-.062 1.212.145 2.8.104 3.555.642 2.976 2.258 5.677 4.702 8.46 7.084 1.268 1.077 2.48 2.196 3.804 3.252 1.57 1.222 3.362 2.32 4.823 3.604 1.708 1.512 3.14 3.2 4.74 4.785 1.57 1.553 3.252 3.066 4.74 4.66 1.075 1.12 2.15 2.237 1.957 3.832-.193 1.802-.028 3.604-.028 5.427 0 .684-.358 1.015-1.323.994l-11.63-.352c-.358-.02-.77-.3-1.02-.56-3.115-3.128-5.815-6.483-9.508-9.3-2.04-1.553-3.776-3.335-5.705-4.95-2.315-1.906-4.713-3.75-7.055-5.634-.607-.497-1.406-.994-1.6-1.595-.33-1.036-.358-2.154-.386-3.252-.027-2.672-.027-5.323.055-7.995 0-.228.634-.62.993-.663 1.212-.104 2.37-.04 3.5-.04zM718.818 26.97c-2.508-.207-4.74.3-6.752 1.326-.717.352-1.378.828-1.847 1.367-1.02 1.14-2.453 2.092-2.8 3.563-.413 1.823-1.13 3.604-.854 5.5.33 2.36 1.516 4.4 4.16 5.78.855.435 1.902.663 2.84 1.015.606.207 1.13.54 1.764.684.606.166 1.267.27 1.9.228 2.6-.124 5.154-.373 7.36-1.574 3.196-1.76 5.677-3.873 6.283-6.94.055-.228-.027-.476-.055-.725-.358-2.382-1.13-4.62-3.197-6.545-2.315-2.113-5.154-3.48-8.8-3.666zm-.965 3.273l-2.287-1.698c2.122-.518 2.783-.248 3.17 1.015l2.425 2.32 5.925 7c1.048 1.243 1.075 1.222-.413 2.32l-4.878-5.5-2.508-3.2-1.433-2.258zm-3.28-1.367l10.858 12.656c.44.497.55.85-.22 1.16-.7.27-1.322 1.036-2.122.124l-6.035-6.752-3.97-4.992c-.275-.352-.496-.725-.77-1.12l2.26-1.077zm-3.225 2.196c.138.124.33.228.44.352l4.658 5.675 5.704 6.193c.193.207.33.538.248.746-.33.6-2.6.663-3.06.124l-8.68-10.5c-.9-1.077-.772-1.698.7-2.6zm8.543-2.32c5.07.248 10.06 6.007 8.5 9.714l-8.5-9.714zm-10.665 5.655l.44-.124 8.626 10.626c-1.433.3-3.03-.414-3.913-1.512-1.57-1.988-2.95-4.08-4.878-5.84-1.323-1.222-.744-2.092-.276-3.148zm4.134 9.238c-3.142-.746-5.1-2.962-4.658-5.26l4.658 5.26z"/><path d="M716.255 24.175c3.693-.25 6.807-.684 9.177-2.506 1.295-.994 2.6-2.05 3.638-3.2 1.82-1.968 1.516-4.143.716-6.317-1.102-3.003-3.417-5.282-7.1-6.7-4.906-1.885-10.665-.85-13.862 2.734-1.847 2.092-2.618 4.412-2.73 6.794-.1 2.693.744 5.282 3.996 6.96.827.414 1.792.663 2.7.994l3.473 1.222zm8.02-16.467c.58.56 1.185 1.118 1.7 1.72 1.488 1.657 2.315 3.52 2.37 5.5.028.9-.082 1.968-.7 2.693-1.736 2.07-4.023 3.8-7.193 4.578-1.35.33-2.893.476-4.27.33-1.268-.145-2.453-.787-3.666-1.243-.716-.27-1.46-.518-2.04-.9-2.067-1.43-2.536-3.376-2.48-5.344.056-1.305.662-2.6 1.13-3.894.662-1.802 2.04-3.23 4.272-4.267l1.406 4.412 1.8 5.054c.22.56.58 1.5 1.047 1.554 1.24.186 1.13-.83 1.488-1.408l5.126-8.782zm223.67.042v5.758c0 .746-.1 1.533.193 2.216 1.02 2.278.578 4.62.77 6.918.193 2.382-.055 4.785 0 7.167l.33 5.033c.055 1.43-.083 2.858-.1 4.288l-.165 6.193c-.056 1.243.44 2.03 1.598 2.237 1.8.33 3.087-.663 2.866-2.196-.1-.85-.248-1.698-.22-2.548l.22-7.167.028-4.578-.44-6.607-.083-4.9-.55-5.84c-.1-1.802-.083-3.625-.028-5.427.028-1.45-.55-2.133-2.122-2.154-1.433-.02-1.956.414-1.956 1.595-.083.02-.22.02-.33.02zM843.58 5.18l-1.957 1.802-4.217 3.2c-.716.58-1.074 1.367-.413 2.07.606.684 1.378 1.305 2.205 1.823l4.492 2.6c.1.062-.1.663-.358.828l-5.595 3.2c-.606.352-.827 1.968-.248 2.423.744.58 1.6 1.098 2.453 1.616l5.043 2.838-5.76 3.625c-1.35.932-2.645 1.947-3.775 3.045-.717.704-.33 1.5.55 2.092l7.22 4.9c.9.6.993 1.14.056 1.698l-3.914 2.216c-.716.394-1.102 1.2-.55 1.72.58.56 1.213.725 2.122.248 1.93-1.036 3.94-1.947 5.3-3.5.855-.974.717-2-.137-3.003-1.902-2.196-5.044-3.314-7.36-5.137a6.05 6.05 0 0 0-.413-.33l3.583-2.817c1.295-.9 2.755-1.7 4.078-2.568 2.067-1.367 1.874-2.983-.275-4.246l-5.292-3.438 4.906-3.045c.772-.518 1.653-1.16 1.957-1.864.385-.85-.386-1.616-1.433-2.092l-2.426-1.118c-.137-.083-.137-.33-.193-.497l-3.472-1.802 3.886-3.252c.7-.54 1.57-.932 2.37-1.408.027-.062.055-.124.055-.207.083-.54.47-1.2.165-1.553-.523-.684-1.46-.54-2.26-.062-.083.02-.25-.02-.386 0zm73.224 2.735v5.758c0 .704.027 1.45.275 2.113.9 2.568.607 5.157.58 7.746-.027 1.574.22 3.17.303 4.743l.193 6.65c.028 1.388-.082 2.796-.138 4.184l-.137 6.172c-.055 1.284.413 1.988 1.598 2.237 1.736.373 3.004-.642 2.8-2.216-.055-.497-.055-.994-.055-1.47l.1-8.244.028-3.956-.414-5.55-.192-5.5-.497-7.187-.027-5.655c0-1.18-.937-1.78-2.48-1.636-1.406.145-1.764.83-1.544 1.802-.138.02-.275.02-.413.02zM913.9 44.4c.276-3.355.193-6.7-.358-10.066-.33-2-.717-4.1-.083-6.214.414-1.367 0-2.858 0-4.288l.055-6.235c0-.373-.22-.746-.193-1.118.028-1.47.138-2.94.193-4.4.055-1.512.22-3.024.055-4.515-.055-.456-.9-1.118-1.515-1.222-.7-.104-1.847.186-2.205.6-.47.56-.414 1.388-.55 2.113-.028.166.137.352.1.497-.413 1.988-.248 3.977-.165 5.965.1 2.6-.166 5.22-.166 7.83 0 1.885.22 3.77.248 5.655.028.9-.303 1.823-.22 2.713.138 1.5.55 2.983.7 4.474.1.974-.055 1.947-.083 2.92 0 .435.1.87.1 1.305l-.027 2.05c-.055 1.015-.22 2.05-.193 3.066.027.787 1.102 1.45 2.15 1.43 1.158-.02 2.012-.62 2.123-1.574.082-.3.027-.642.027-.994zm31.07.27c.33-3.563.22-6.814-.303-10.108-.33-2.03-.937-4.184-.055-6.297.166-.393-.165-.87-.165-1.305-.083-2.65-.303-5.323-.1-7.974a19.07 19.07 0 0 0-.083-3.542c-.138-1.077.33-2.175.386-3.273.082-1.574.165-3.148-.028-4.702-.055-.414-1.02-1.036-1.653-1.098s-1.737.27-2.04.684c-.44.6-.33 1.408-.44 2.133-.027.166.1.352.083.497-.634 3.045-.193 6.1-.22 9.134 0 2.548-.138 5.095-.166 7.643 0 .787.138 1.574.22 2.36.027.27.055.538.055.808 0 1.118-.083 2.216-.028 3.335.055 1.408.22 2.817.33 4.246.083 1.14.22 2.3.276 3.438.027.808-.056 1.636-.083 2.444-.028.85-.138 1.698-.1 2.548.027.766 1.02 1.388 2.04 1.388 1.185-.02 2.122-.787 2.15-1.802 0-.27-.056-.54-.056-.56zm-14.662-.56l-.028-8.782c-.1-2.05-.716-4.1-.882-6.152-.165-1.947 0-3.894-.027-5.84 0-.393-.138-.787-.193-1.18-.193-1.346-.55-2.693-.58-4.04l.138-8.078a12.89 12.89 0 0 0-.248-2.506c-.165-.808-.937-1.16-1.957-1.16-1.047 0-1.598.456-1.764 1.2-.275 1.222-.66 2.444-.744 3.666-.082.87.304 1.76.36 2.65l.716 9.03.414 9.176.578 6.027c.055 1.947-.22 3.873-.358 5.82-.027.497-.248 1.098.055 1.5.358.518 1.047 1.056 1.736 1.222.937.228 1.82-.186 2.178-.9.248-.497.275-1.056.413-1.595.055-.02.1-.04.193-.04zm-29.048-3.872l.386 4.93c.138.974 1.158 1.346 2.315 1.2 1.158-.124 1.736-.663 1.7-1.678-.055-1.864.138-3.728.165-5.613.028-1.988.276-4.018-.027-5.986-.496-3.2.303-6.4-.166-9.6-.193-1.222.33-2.506.44-3.77.083-.828.083-1.678.055-2.506l-.22-2.94-.276-5.5c-.055-.56-.358-1.284-.882-1.595-.468-.27-1.488-.228-2.122-.04-.44.124-.854.725-.882 1.118-.055 1.015.193 2.05.193 3.065l-.137 4.847-.056 6.297-.358 4.785c-.027 1.263.166 2.527.166 3.8l-.138 4.184v5.012a.78.78 0 0 1-.166.021zm35.36 3.292l.303-4.474c.028-1.47-.1-2.94-.193-4.412l-.22-2.94c0-.538.22-1.077.248-1.616l.027-5.427.386-4.888.083-2.817-.028-3.956c-.027-.704-.193-1.43-.275-2.133l-.166-2.36c-.082-1.015-.992-1.636-2.232-1.574-1.185.062-1.736.56-1.764 1.595l-.14 12.862.166 4.184-.193 4.97-.028 3.376v9.507c0 .62.138 1.222.303 1.823.276.953 1.268 1.14 2.343 1.036 1.102-.104 1.68-.62 1.516-1.533-.083-.394 0-.828 0-1.222-.055.02-.083 0-.138 0zM730.723 25.956c.166 2.196.36 3.915 1.68 5.5 1.323 1.595 3.418 2.36 5.567 2.983 1.185.33 2.04 1.16 3.583 1.015 3.225-.3 6.146-.808 8.68-2.568 2.343-1.616 4.3-3.293 4.713-5.717.138-.828.083-1.74-.138-2.568-1.102-4.018-3.968-7.063-9.287-8.4-2.756-.683-5.567-.58-8.323.642-2.674 1.18-4.217 2.962-5.347 4.9-.8 1.43-.827 3.086-1.13 4.205zm10.473-8.74c2.92.062 5.374.62 7.055 1.657 3.114 1.947 4.768 4.495 4.823 7.54.027.87-.193 1.864-.8 2.568-1.268 1.47-2.784 2.838-4.933 3.708-2.453.973-4.85 2.113-7.607.538-.138-.062-.358-.02-.523-.083-1.323-.414-2.8-.684-3.914-1.326-2.177-1.284-2.728-3.355-2.618-5.22.138-2.65.937-5.323 3.6-7.374 1.433-1.118 3.197-1.885 4.906-2zm258.368 9.216l-.854-.87L993.088 20l-6.752-6.442-6.1-4.93c-.606-.497-1.157-1.077-1.874-1.45-.358-.207-1.047-.062-1.598-.083.027.373-.083.808.165 1.098.47.56 1.103 1.056 1.68 1.553l6.642 5.634c3.445 3.107 6.78 6.276 10.114 9.445.717.683 1.296 1.47 2.04 2.133.248.207.9.248 1.35.166.248-.062.47-.414.8-.683zM959.328 25.2c-.386.27-.937.456-.992.704-.055.352.082.85.386 1.12l5.208 4.515 7.138 6.628 4.74 3.998c.607.518 1.02 1.16 1.654 1.636.303.228.9.25 1.378.352.138-.373.55-.9.358-1.118-.992-1.222-2.04-2.444-3.224-3.563l-6.752-6.07-7.7-6.545c-.44-.373-.8-.828-1.24-1.2-.22-.166-.578-.27-.964-.456z"/><path d="M984.627 7.17c-1.24-.02-1.874.787-1.212 1.45.854.87 1.93 1.636 2.893 2.465l4.768 4.246 4.08 4.33 3.224 3.003c.276.228 1.13.062 1.7.062 0-.393.22-.932-.03-1.18-2.48-2.63-4.96-5.26-7.606-7.788-2.205-2.113-4.657-4.122-7-6.152-.248-.228-.66-.352-.827-.435zm-12.043 35.232c-.138-.166-.358-.456-.634-.725l-6.283-5.717-4.823-4.847c-.47-.456-.993-.9-1.544-1.305-.606-.456-1.35-.518-1.93 0-.606.54-.083.83.44 1.264 1.323 1.077 2.48 2.278 3.665 3.438l7.193 6.94c.662.62 1.406 1.243 2.288 1.698.716.373 1.57 0 1.626-.746zm17.97-35.005c-.497.25-1.02.352-1.103.56-.1.3-.083.787.166 1.036l7.9 7.954c.58.58 1.24.828 2.095.373.77-.414.47-.9.027-1.346l-7.634-7.52c-.413-.373-.937-.684-1.46-1.056zm-24.556 34.55c-.165-.352-.22-.62-.386-.787l-2.976-2.88-2.343-2.113c-.578-.497-1.157-1.036-1.9-1.388-.358-.166-1.103-.083-1.516.103-.193.083-.138.787.1 1.015l3.86 3.355 2.7 2.6c.386.33.993.58 1.544.663.248.04.634-.394.9-.58zm34.253-28.583c.5-.27.97-.394 1.16-.663.14-.186-.03-.6-.25-.808l-3.745-3.75c-.58-.58-1.323-.85-2.095-.373-.744.435-.303.9.248 1.367 1.268 1.098 2.37 2.3 3.583 3.438.276.3.7.497 1.1.787zM957.454 39.15c-1.185-.04-1.847.704-1.323 1.346.744.9 1.516 1.823 2.453 2.6.33.27 1.185.166 1.8.228 0-.414.193-.9-.027-1.222-.634-.9-1.434-1.72-2.205-2.568-.193-.228-.55-.33-.7-.394zm21.854-14.872c-1.708 0-3.307.083-4.464 1.305-.772.828-.634 1.595-.1 2.278 1.626 2.113 6.284 2.07 8.048.33.744-.746.882-1.595.1-2.3-.8-.704-1.35-1.78-3.03-1.636-.166.02-.36.02-.552.02zm-.854 1.47c.58.062 1.075 0 1.295.145.496.33.937.725 1.185 1.16.083.145-.496.725-.716.725a29.25 29.25 0 0 1-3.445-.54c-.1-.02-.22-.704-.028-.808.552-.33 1.24-.518 1.7-.684zm-235.357-5.882c-1.598.435-3.417.62-4.712 1.326-3.252 1.802-3.86 3.5-2.536 6.442.8 1.802 2.563 3.107 4.74 3.956.77.3 2.066.145 2.976-.124 3.886-1.16 6.42-4.287 5.512-7.477-.607-2.133-2.894-3.998-5.843-3.873a.62.62 0 0 1-.138-.249zm5.016 5.696l-1.075 2.278c-.992 1.636-2.7 2.6-5.043 2.983-.33.04-.8.02-1.02-.124-1.185-.808-2.563-1.553-3.4-2.548-1.24-1.5-1.378-3.23-.33-4.826 1.102-1.678 4.905-2.693 7.276-2.092 2.094.518 3.4 2.154 3.582 4.33z"/></svg>