<svg xmlns="http://www.w3.org/2000/svg" width="37" height="97" fill="#fff" xmlns:v="https://vecta.io/nano"><path d="M16.844 3.938l.348 4.127.1 15.165.15 8.005c.05 1.54-.547 2.387-1.64 2.436-1.044.05-1.7-.746-1.7-2.237l.05-18.397-.398-8.85H10.78v1.7l-.15 16.3c0 2.884.298 5.768.447 8.7.05.497.1 1.094-.15 1.492-.298.497-.845 1.243-1.243 1.193-.497-.05-1.293-.696-1.392-1.193a34.45 34.45 0 0 1-.547-5.072c-.15-4.475-.2-8.95-.2-13.375-.05-3.182 0-6.364 0-9.646h-3.78c.15 1.7.348 3.38.447 5.072a30.81 30.81 0 0 1 .15 3.033v19.193c0 1.094-.447 2-1.6 2.04-1.193.1-1.7-.746-1.74-1.84l-.15-15.066-.2-11.038c0-1.044 0-2.138.1-3.182.05-.994.646-1.442 1.64-1.442l14.618-.2C20.97.756 24.95.408 28.877.2c1.9-.1 3.83-.25 5.718-.2.447 0 1.193.746 1.193 1.144 0 .497-.497 1.392-.945 1.492-4.326 1.094-8.8.696-13.176.845-1.442.1-3.033.298-4.823.448zM30.02 64.6L12.07 49.036c-3.083-2.685-6.066-5.52-9.1-8.254-.15-.15-.298-.348-.447-.497-.547-.696-.796-1.392 0-2.04.696-.597 1.392-.398 2.088.2l26.402 23.02c1.293 1.094 2.784 1.94 4.077 3.033.398.348.646 1.144.547 1.64-.25 1.094-.746 2.138-2.138 2.138L6.353 67.83c-1.442 0-2.834.1-4.276.15-.945 0-1.6-.447-1.7-1.442s.547-1.442 1.392-1.492c2.983-.15 5.967-.348 8.95-.348 6.315-.15 12.68-.1 19.292-.1zm-7.06 28.042l10.64.05c.646 0 1.54.497 1.8 1.044.448.945-.398 1.492-1.243 1.8-.646.2-1.342.398-2.038.398l-20.436.298c-1.193 0-2.436-.348-3.63-.746-.447-.15-.994-.945-.994-1.442L6.65 78.72c0-.945.348-1.84 1.442-1.84s1.243.945 1.293 1.8l.2 7.707.15 4.127c.05 2 .348 2.287 2.387 2.337h10.8c.05 0 .05-.1.05-.2zM8.7 61.02H2.325c-1.94 0-2.188-.447-1.8-2.287.15-.646.05-1.392.05-2.04L.038 48.14c-.05-.845-.2-1.8.796-2.138 1.044-.348 2.138-.447 3.033.497l4.525 4.475 7.508 6.712c.2.2.497.348.597.547.25.547.646 1.293.448 1.7-.25.447-1.044.845-1.64.895l-6.613.05v.15zm2.735-3.083l-8.365-7.46.696 7.906 7.657-.448zm5.06 13.673h10.5l6.215.25c1.293.1 2.188.945 2.088 1.94-.05 1.044-.895 1.492-2.387 1.442l-21.132-.298C8.5 74.9 5.26 75 1.977 75c-.994 0-1.6-.447-1.7-1.442-.1-.945.448-1.392 1.293-1.442l6.066-.398h8.85v-.1zm-5.42-35.9c.646.348 1.144.497 1.492.795l14.867 12.132c2.884 2.436 5.52 5.12 8.254 7.757.25.25.298 1.193.1 1.392-.447.398-1.243.746-1.74.597-.746-.25-1.442-.845-2-1.392-5.37-5.42-11.585-9.845-17.6-14.47-1.54-1.193-2.983-2.586-4.376-3.978-.348-.348-.497-1.144-.348-1.54.15-.547.845-.895 1.342-1.293zm14.37-14.16l9.596 7.956c.796.646 1.094 1.293.646 2.138-.497.845-1.293.945-2.138.547-.398-.2-.796-.448-1.144-.746l-10.64-8.8c-.597-.497-1.094-1.342-1.343-2.138-.298-1.243.348-1.94 1.6-2l10.5-.497c.796-.05 1.6 0 2.337.2.447.15 1.193.746 1.144 1.044-.1.497-.646 1.144-1.094 1.243l-7.4.895-2.04.15zm-2.04 56.682h9.497c.497 0 1.144.05 1.442.348.448.497.995 1.243.845 1.8-.1.497-.994 1.193-1.54 1.193l-15.414-.348c-.746 0-1.442-.05-2.188.1-1.094.2-1.84-.2-2.138-1.243-.25-1.044.547-1.54 1.343-1.74.945-.2 1.9-.298 2.884-.298h5.22c.05.05.05.1.05.2zm1.143 6.763h8.005c.298 0 .646.05.945.15 1.094.25 1.94.746 1.8 2.04-.1 1.044-1.144 1.392-2.486 1.293l-8.403-.25-6.066-.15a19.91 19.91 0 0 0-2.436.15c-.994.15-1.64-.298-1.9-1.193-.298-.845.2-1.492.994-1.7a9 9 0 0 1 2.585-.398h7.06c-.1-.05-.1 0-.1.05zM.336 86.576v-7.16c0-1.144.348-1.94 1.54-2 1.243-.05 1.442.845 1.492 1.9l.298 13.922c0 .398.05.845-.05 1.243-.2.895-.845 1.293-1.7 1.243-.895-.05-1.342-.497-1.342-1.392v-7.707c-.1-.05-.15-.05-.25-.05zm21.28-51.71c.547.298.945.447 1.243.696l11.635 9.944c.348.298.547 1.492.298 1.74-.398.398-1.243.547-1.9.547-.348 0-.746-.447-1.094-.795L21.07 37.5c-.398-.348-.696-1.044-.597-1.492.05-.398.746-.746 1.144-1.144zm12.133 5.022c-.646-.348-1.144-.547-1.54-.895l-11.24-9.845c-.597-.547-1.044-1.144-.348-1.9s1.442-.696 2.188-.1l7.508 6.315 4.127 3.68c.348.348.597 1.094.497 1.54-.05.447-.696.746-1.193 1.193zM29.175 9.855l-6.613.348c-.994.05-1.84-.298-1.9-1.392-.1-1.044.696-1.6 1.7-1.6l11.883-.298c.895 0 1.84.25 1.84 1.392s-.945 1.293-1.9 1.342l-4.972.2c-.05.05-.05 0-.05 0zm-1.8 3.083l5.52-.348c.547-.05 1.144-.2 1.64-.05.547.2 1.293.646 1.442 1.144.298.845-.398 1.392-1.193 1.492l-5.37.597-7.3.05c-.547 0-1.094-.696-1.64-1.094.398-.597.746-1.492 1.293-1.64 1.094-.298 2.287-.15 3.43-.15h2.188c0-.05 0-.05 0 0z"/></svg>