<svg xmlns="http://www.w3.org/2000/svg" width="1303" height="9" fill="none" xmlns:v="https://vecta.io/nano"><path d="M91.985 7.184l148.02.54 145.963-.343 97.308-.392 53.452.44 179.54.05 161.724.687 93.196.147 130.883-.05 70.6-.49 78.12-.294c33.58-.147 54.13-1.766 52.08-3.973-2.06-2.11-18.5-3.1-52.77-3.14L824.54.12c-45.914 0-92.512.294-138.425.294L409.95.022H95.41c-20.558 0-40.43.245-60.304.54-31.522.49-37.7 2.257-34.264 4.17 3.426 1.962 20.558 2.992 50.7 2.698h40.43c-.685-.098 0-.147 0-.245z" fill="#e7ab54"/></svg>