<svg xmlns="http://www.w3.org/2000/svg" width="363" height="176" fill="none" xmlns:v="https://vecta.io/nano"><path fill-rule="evenodd" d="M52.918 157.933c12.682.222 25.3-1.526 37.858-3.265l10.07-1.357 10.323-1.45c26.12-3.723 52.382-7.466 78.7-1.538 10.292 2.613 19.9.594 29.538-1.436 5.54-1.165 11.095-2.334 16.808-2.632 9.41-.98 19.115 1.79 28.802 4.552 6.68 1.905 13.35 3.808 19.91 4.478 18.632 2.334 37.18 3.02 55.403 2.896 11.188-.583 20.917-39.927 18.92-72.875-2.04-33.772-10.753-55.63-23.662-55.782l-3.026-.052c-21.747-4.393-49.84-9.404-69.645-6.885l-10.323 1.45c-26.12 3.723-52.382 7.467-78.7 1.538-10.293-2.613-19.89-.594-29.54 1.436-5.54 1.165-11.094 2.334-16.807 2.632-9.41.98-19.116-1.79-28.802-4.552-6.68-1.905-13.35-3.808-19.91-4.478-18.632-2.334-37.18-3.02-55.403-2.897C12.244 18.3 2.515 57.643 4.513 90.59c2.04 33.773 11.55 70.903 24.458 71.056 8.053.145 16.022-1.336 23.947-3.714z" fill="#e7ab54"/></svg>