<svg xmlns="http://www.w3.org/2000/svg" width="107" height="118" fill="#fff" xmlns:v="https://vecta.io/nano"><path d="M3.796 9.068l.065 32.5c0 2.57.777 4.7 3.1 6.55 3.37 2.762 6.22 6.102 9.2 9.313l14.773 16.314c4.47 5 9.136 9.9 13.283 15.158 4.6 5.845 8.747 12.14 13.153 18.113 1.88 2.57 4.017 5 6.22 7.258.777.835 2.333 1.22 3.564 1.284l26.112.707c1.88.064 3.823.514 5.702 1.092 3.563 1.092 5.054.32 5.313-3.404.194-2.955.064-5.9 0-8.864-.13-5.267-.713-10.598-.324-15.864.388-4.56-1.62-7.643-4.34-10.855-3.175-3.854-5.767-8.157-8.94-12l-22.3-26.783c-3.045-3.532-6.868-6.487-10.108-9.9-1.75-1.798-3.045-4.1-4.795-5.973C47.855 17.418 41.57 11.5 36.58 4.765 32.95-.115 28.35.525 23.75.14c-3.758-.32-7.516 0-11.274.064C4.83.333 3.536 1.682 3.794 9.07zM19.152 5.15v.385c1.296-.064 2.592-.385 3.823-.193 2.85.45 6.6.32 8.358 2 6.998 7 13.347 14.58 19.892 21.966 2.98 3.34 5.83 6.808 8.94 10.084 3.693 3.8 7.905 7.194 11.34 11.176 4.017 4.7 7.386 9.9 11.144 14.837 3.693 4.817 7.646 9.506 11.144 14.452 2.527 3.468 5.054 6.937 4.6 11.882-.454 5.588-.065 11.176-.065 16.828 0 2.12-.842 3.148-3.1 3.083l-27.343-1.092c-.842-.064-1.814-.963-2.397-1.734-7.322-9.698-13.67-20.103-22.354-28.838-4.795-4.817-8.877-10.34-13.412-15.35-5.443-5.9-11.08-11.625-16.587-17.47-1.425-1.54-3.304-3.083-3.758-4.946-.777-3.2-.85-6.68-.917-10.084L8.6 7.334c0-.707 1.5-1.927 2.333-2.055 2.85-.32 5.572-.128 8.23-.128zm83.388 57.935l-2.008-2.698L87.314 43.1c-5.248-6.68-10.367-13.5-15.874-19.976-4.535-5.33-9.525-10.212-14.32-15.286-1.425-1.54-2.72-3.34-4.406-4.496-.842-.642-2.462-.193-3.758-.257.065 1.156-.194 2.505.4 3.404 1.1 1.734 2.592 3.276 3.952 4.817 5.184 5.845 10.626 11.497 15.615 17.47 8.1 9.634 15.94 19.46 23.78 29.288 1.685 2.12 3.045 4.56 4.795 6.616.583.642 2.138.77 3.175.514.583-.193 1.102-1.285 1.88-2.12zM7.942 59.23c-.907.835-2.203 1.413-2.333 2.184-.13 1.092.194 2.633.907 3.468 4.017 4.753 8.294 9.25 12.246 14.002l16.78 20.553c3.564 4.24 7.45 8.22 11.144 12.396 1.425 1.606 2.397 3.597 3.888 5.074.713.707 2.138.77 3.24 1.092.324-1.156 1.296-2.762.842-3.468-2.332-3.8-4.795-7.58-7.58-11.048-5.183-6.422-10.496-12.653-15.874-18.82L13.126 64.37c-1.037-1.156-1.88-2.57-2.916-3.725-.518-.514-1.36-.835-2.268-1.413zm59.48-55.878c-2.916-.064-4.406 2.44-2.85 4.496 2.008 2.698 4.535 5.074 6.803 7.643 3.758 4.368 7.7 8.607 11.2 13.167 3.37 4.303 6.35 8.992 9.6 13.424 2.397 3.2 4.86 6.423 7.58 9.313.648.707 2.657.193 4.017.193 0-1.22.52-2.9-.064-3.66-5.832-8.157-11.663-16.314-17.883-24.15-5.184-6.55-10.95-12.78-16.458-19.076-.583-.707-1.555-1.092-1.944-1.35zM39.108 112.605l-1.5-2.248L22.845 92.63c-3.952-4.88-7.516-10.02-11.34-15.03-1.1-1.413-2.332-2.762-3.628-4.046-1.425-1.413-3.175-1.606-4.536 0-1.425 1.67-.194 2.57 1.037 3.918 3.1 3.34 5.83 7.065 8.618 10.662l16.9 21.516c1.555 1.927 3.305 3.854 5.378 5.267 1.685 1.156 3.693 0 3.823-2.312zM81.353 4.058c-1.166.77-2.397 1.092-2.592 1.734-.26.963-.194 2.44.4 3.2l18.596 24.664c1.36 1.798 2.915 2.57 4.924 1.156 1.814-1.285 1.1-2.762.065-4.175L84.787 7.334c-.972-1.156-2.203-2.12-3.434-3.276zm-57.73 107.134c-.4-1.092-.518-1.927-.907-2.44-2.268-3.02-4.6-5.973-6.998-8.928-1.75-2.248-3.564-4.432-5.507-6.55-1.36-1.54-2.72-3.212-4.47-4.303-.842-.514-2.592-.257-3.564.32-.454.257-.324 2.44.26 3.147 2.916 3.597 6.155 6.873 9.07 10.405 2.203 2.633 4.082 5.524 6.35 8.093.907 1.027 2.333 1.798 3.628 2.055.583.13 1.5-1.22 2.138-1.798zm80.538-88.636c1.166-.835 2.268-1.22 2.722-2.055.324-.578-.065-1.863-.584-2.505-2.85-3.918-5.896-7.707-8.8-11.625-1.36-1.798-3.1-2.633-4.924-1.156-1.75 1.35-.713 2.762.583 4.24 2.98 3.404 5.572 7.13 8.423 10.662.648.9 1.62 1.54 2.592 2.44zM3.537 102.52c-2.786-.13-4.34 2.184-3.1 4.175 1.75 2.826 3.564 5.652 5.767 8.093.778.835 2.786.513 4.212.706 0-1.284.454-2.826-.065-3.8-1.5-2.762-3.37-5.33-5.183-7.965-.454-.706-1.296-1.027-1.62-1.22zm51.38-46.115c-4.017 0-7.775.257-10.496 4.046-1.814 2.57-1.5 4.946-.26 7.065 3.823 6.55 14.773 6.423 18.92 1.028 1.75-2.312 2.073-4.946.26-7.13-1.88-2.184-3.175-5.524-7.127-5.074-.4.064-.842.064-1.296.064zm-2 4.56c1.36.193 2.527 0 3.045.45 1.166 1.028 2.203 2.248 2.786 3.597.194.45-1.166 2.248-1.685 2.248-2.72-.32-5.443-.9-8.1-1.67-.26-.064-.518-2.184-.065-2.505 1.296-1.028 2.916-1.606 4.017-2.12z"/></svg>